<svg width="25" height="25" viewBox="0 0 25 25" fill="none" xmlns="http://www.w3.org/2000/svg">
<path d="M12.4653 17.2051C11.5972 17.2051 10.7986 16.9968 10.1042 16.5801C9.375 16.1635 8.81944 15.5732 8.40278 14.844C7.98611 14.1496 7.77778 13.351 7.77778 12.4829C7.77778 11.9621 7.84722 11.4412 8.05556 10.9204L6.07639 8.07319C4.6875 9.04541 3.57639 10.226 2.74306 11.6496C2.56944 11.9274 2.5 12.2051 2.5 12.4829C2.5 12.7954 2.56944 13.0732 2.74306 13.3162C3.71528 15.0176 5.06944 16.3718 6.80556 17.344C8.54167 18.3857 10.4167 18.8718 12.5 18.8718C12.8472 18.8718 13.2292 18.8718 13.5764 18.8371L12.4653 17.2051ZM22.2569 13.3162C22.3958 13.0732 22.5 12.7954 22.5 12.4829C22.5 12.2051 22.3958 11.9274 22.2569 11.6496C21.25 9.98291 19.8958 8.62874 18.1944 7.6218C16.4583 6.61485 14.5486 6.09402 12.5 6.09402C11.4931 6.09402 10.5208 6.23291 9.58333 6.47597L7.8125 3.94124C7.67361 3.76763 7.46528 3.66347 7.25694 3.62874C7.01389 3.59402 6.80556 3.62874 6.63194 3.73291L6.18056 4.08013C5.97222 4.21902 5.86806 4.39263 5.83333 4.60097C5.79861 4.84402 5.83333 5.05235 5.97222 5.22597L17.1875 21.0246C17.3264 21.2329 17.5 21.3371 17.7431 21.3718C17.9514 21.4065 18.1597 21.3718 18.3681 21.2329L18.8194 20.8857C18.9931 20.7815 19.0972 20.6079 19.1319 20.3649C19.1667 20.1565 19.1319 19.9482 19.0278 19.7399L17.5694 17.6912C18.5417 17.2051 19.4097 16.6149 20.2431 15.851C21.0417 15.1218 21.7014 14.2885 22.2569 13.3162ZM17.2222 12.4829C17.2222 13.6635 16.8403 14.7051 16.0764 15.5732L15.4167 14.6357C15.8333 14.0801 16.0417 13.4204 16.1111 12.726C16.1458 12.0315 16.0069 11.4065 15.6944 10.7815C15.6944 11.1982 15.5208 11.5801 15.2431 11.8579C14.9653 12.1357 14.6181 12.2746 14.2014 12.2746C13.7847 12.2746 13.4028 12.1357 13.125 11.8579C12.8472 11.5801 12.7083 11.1982 12.7083 10.7815C12.7083 10.3649 12.8472 10.0176 13.125 9.73985C13.4028 9.46208 13.7847 9.28847 14.2014 9.28847C13.75 9.08013 13.2986 8.94124 12.8125 8.90652C12.3264 8.8718 11.8403 8.90652 11.4236 9.04541L10.7292 8.10791C11.2847 7.89958 11.875 7.76069 12.5 7.76069C13.3333 7.76069 14.1319 8.00374 14.8611 8.42041C15.5556 8.83708 16.1458 9.42735 16.5625 10.1218C16.9792 10.851 17.2222 11.6496 17.2222 12.4829ZM11.5972 15.9899C10.7292 15.7815 10.0347 15.2954 9.54861 14.5662C9.02778 13.8718 8.81944 13.0385 8.88889 12.1357L11.5972 15.9899Z" fill="white"/>
</svg>
