<?xml version="1.0" encoding="utf-8"?>
<!-- Generator: Adobe Illustrator 24.0.1, SVG Export Plug-In . SVG Version: 6.00 Build 0)  -->
<svg version="1.1" xmlns="http://www.w3.org/2000/svg" xmlns:xlink="http://www.w3.org/1999/xlink" x="0px" y="0px"
	 viewBox="0 0 1080 1080" style="enable-background:new 0 0 1080 1080;" xml:space="preserve">
<style type="text/css">
	.st0{display:none;}
	.st1{fill:none;stroke:#FFFFFF;stroke-width:6;stroke-miterlimit:10;}
	.st2{fill:none;stroke:#FF0000;stroke-width:6;stroke-miterlimit:10;}
	.st3{fill:#FF0000;}
	.st4{fill:none;stroke:#000000;stroke-width:6;stroke-miterlimit:10;}
	.st5{fill:none;stroke:#F40000;stroke-width:6;stroke-miterlimit:10;}
	.st6{fill:#F40000;}
	.st7{fill:none;stroke:#000000;stroke-width:6;stroke-linecap:round;stroke-linejoin:round;stroke-miterlimit:10;}
	.st8{fill:none;stroke:#FFFFFF;stroke-width:6;stroke-linecap:round;stroke-linejoin:round;stroke-miterlimit:10;}
	.st9{fill:none;stroke:#000000;stroke-width:6;stroke-linecap:round;stroke-miterlimit:10;}
	.st10{fill:none;stroke:#FFFFFF;stroke-width:6;stroke-linecap:round;stroke-miterlimit:10;}
</style>
<g id="Camada_4" class="st0">
</g>
<g id="_x31_">
	<g id="Camada_3">
	</g>
</g>
<g id="_x32_">
	<path class="st1" d="M493.39,481.72C491.28,490.75,488,500,488,500c-1.87,5.29-4.7,10.09-7,17c-3,9-8,17-12,25c-1,2,0,3-1,5
		c-2,4-4,8-6,12c-1,6-4,11-5,17c-3,20,1,40,0,60c-1,23-2,46-7,70c-4,21-21,33-34,50c-25,37-14,80-19,121c-2,11-5,22-9,33
		c-8,20-25,33-38,51c-3,5-3,10-2,15c2,5,7,8,11,10c10,5,21,2,32,4c23-6,35-33,31-55c-3-20-2-40,4-59c6-20,19-34,29-52
		c8-14,12-30,13-46c1-12,7-23,14-34c11-14,20-26,28-41c20-39,29-80,43-121c1-3,6-5,11-3c7,3,12,9,14,16c13,47,24,90,52,132
		c6,9,13,17,16,27c7,22-6,51,15,67c5,8,12,15,16,23c8,17,12,36,7,55c-2,7-5,13-9,19c-3,6-3,13,0,19c15,24,41,33,68,38
		c10,2,20-4,22-15c1-6-2-12-7-15c-14-6-28-11-36-25c-3-6-6-11-7-18c0-5-2-11-1-16c3-19,1-38,1-57c-1-10-3-19-6-28c-4-10-12-18-17-28
		c-3-7-5-15-6-23c-4-36,3-71-6-107c-1-4-3-7-4-10c-4.36-21.52-12.54-53.11-29-89c-13.2-28.77-17.48-29.28-24.88-51.42
		c-4.24-12.71-17.28-57.94-3.12-107.58c4.75-16.64,13.27-36.12,6-42c-4.04-3.26-8.63,0.99-15-1c-21.63-6.77-19.9-72.12-24-72
		c-1.1,0.03-0.79,4.68-4,11c-1.72,3.4-4.9,8.14-16,16c-11.76,8.32-17.64,12.49-23,13c-16.6,1.59-31.01-18.33-38-28
		c-16.61-22.97-19.88-45.75-24-45c-2.64,0.48-2.92,10.14-3,13c-0.68,23.77,9.77,30.87,12,53c1.59,15.82-2.35,30.44-3,35
		c-3.07,21.59-5.24,21.87-6,32c-1.84,24.51,12.78,25.71,15,59C498.11,460.7,494.21,478.21,493.39,481.72z"/>
	<path class="st1" d="M394.13,888.1c3.83,1.46,9.51,3.09,16.53,3.31c4.79,0.14,8.92-0.42,12.12-1.1"/>
	<path class="st1" d="M389.72,906.83c3.95,1.42,9.6,2.96,16.53,3.31c5.74,0.28,10.64-0.34,14.32-1.1"/>
	<path class="st1" d="M685.02,883.69c3.41,1.43,9.19,3.34,16.53,3.31c5.57-0.03,10.12-1.16,13.22-2.2"/>
	<path class="st1" d="M682.81,901.32c4.11,1.54,10.62,3.4,18.73,3.31c5.87-0.07,10.77-1.13,14.32-2.2"/>
	<path class="st1" d="M492.19,487.02c16.75,5.07,39.68,10.17,67.21,11.02c24.66,0.76,45.7-2.12,61.7-5.51"/>
	<path class="st1" d="M455.83,647.89c22.77,6.98,45.54,13.96,68.31,20.94"/>
	<path class="st1" d="M603.48,672.13c10.35-6.22,22.86-12.8,37.46-18.73c13.64-5.54,26.33-9.4,37.46-12.12"/>
	<path class="st1" d="M487.78,496.94c20.3,6.78,50.94,14.09,88.15,12.12c18.69-0.99,35.03-4.11,48.48-7.71"/>
	<path class="st1" d="M482,363c-7.46-3.53-18.81-10.37-26-23c-7.01-12.32-7.38-25.43-3-52c8.25-50.09,24.78-96.07,29-95
		c1.23,0.31,0.65,3.93,2,14c1.33,9.93,2.16,13.21,1.58,16.11c-0.17,0.87-0.43,1.47-0.58,1.89c0,0-1.71,4.88-7,23
		c-1.52,5.19-1.66,17.52,12,51"/>
	<path class="st1" d="M628,348c3.93-10.12,8.46-25.95,7-45c-0.81-10.52-3.19-18.85-17-50c-19.32-43.58-29.08-65.26-35-64
		c-4.1,0.87-6.99,11.86-5,20c1.18,4.83,3.45,6.07,6,13c2.06,5.6,2.53,10.08,3,15c1.68,17.35-1.34,39.36-2,44"/>
	<path class="st1" d="M513,165c-3.08,1.05-21.75,7.79-28,25c-9,24.77,12.13,59.13,40,63c20.38,2.83,35.8-11.84,38-14
		c14.79-14.52,21.48-39.92,11-56c-5.44-8.36-13.94-11.77-22-15C544.83,165.12,530.02,159.18,513,165z"/>
	<path class="st1" d="M506,168c0.13-22.44,16.17-36.37,27-35c9.88,1.25,20.57,15.87,19,35"/>
	<path class="st1" d="M485,221c13.35,24.13,28.88,37.71,39,45c8.16,5.87,11.78,6.93,15,7c23.63,0.52,40.01-51.74,41-55"/>
	<g>
		<g>
			<path class="st2" d="M543,139c-5.37-24.6-12.76-50.17-21-50c-7.68,0.16-13.01,22.61-15,31c-3.65,15.39-6.71,39.09-0.77,69.77"/>
			<g>
				<polygon class="st3" points="497.45,185.66 505.75,187.22 512.64,182.33 509,202 				"/>
			</g>
		</g>
	</g>
	<path class="st1" d="M487,246c3.33-2,6.67-4,10-6"/>
	<path class="st1" d="M574,233c4.33,2.33,8.67,4.67,13,7"/>
	<path class="st1" d="M499,407c38.33,0.67,76.67,1.33,115,2"/>
	<line class="st1" x1="499" y1="407" x2="490" y2="407"/>
</g>
<g id="Camada_5">
</g>
<g id="Camada_6">
</g>
</svg>
