<?xml version="1.0" encoding="utf-8"?>
<!-- Generator: Adobe Illustrator 24.0.1, SVG Export Plug-In . SVG Version: 6.00 Build 0)  -->
<svg version="1.1" xmlns="http://www.w3.org/2000/svg" xmlns:xlink="http://www.w3.org/1999/xlink" x="0px" y="0px"
	 viewBox="0 0 1080 1080" style="enable-background:new 0 0 1080 1080;" xml:space="preserve">
<style type="text/css">
	.st0{display:none;}
	.st1{fill:none;stroke:#FFFFFF;stroke-width:6;stroke-miterlimit:10;}
	.st2{fill:none;stroke:#FF0000;stroke-width:6;stroke-miterlimit:10;}
	.st3{fill:#FF0000;}
	.st4{fill:none;stroke:#000000;stroke-width:6;stroke-miterlimit:10;}
	.st5{fill:none;stroke:#F40000;stroke-width:6;stroke-miterlimit:10;}
	.st6{fill:#F40000;}
	.st7{fill:none;stroke:#000000;stroke-width:6;stroke-linecap:round;stroke-linejoin:round;stroke-miterlimit:10;}
	.st8{fill:none;stroke:#FFFFFF;stroke-width:6;stroke-linecap:round;stroke-linejoin:round;stroke-miterlimit:10;}
	.st9{fill:none;stroke:#000000;stroke-width:6;stroke-linecap:round;stroke-miterlimit:10;}
	.st10{fill:none;stroke:#FFFFFF;stroke-width:6;stroke-linecap:round;stroke-miterlimit:10;}
</style>
<g id="Camada_4" class="st0">
</g>
<g id="_x31_">
	<g id="Camada_3">
	</g>
</g>
<g id="_x32_">
	<path class="st1" d="M511,241.46c-6.82-4.15-15.55-4.43-33-5c-10.78-0.35-24.06-0.72-42,2c-36.26,5.49-68.11,10.31-92,35
		c-24.43,25.25-35.58,66.18-23,81c0.49,0.58,6.67,5.4,19,15c11.76,9.16,17.64,13.74,18,14c18.15,13.13,42.13,0.49,74,1
		c44.96,0.72,75.48,27.12,80,20c2.72-4.29-10.31-10.8-11-25c-0.88-18.03,19.37-22.67,29-49c5.85-16,4.17-30.13,3-40
		C531.33,276.43,528.44,252.07,511,241.46z"/>
	<path class="st1" d="M347,331.46c1.56,6.21,2.98,14.38,3,24c0.02,7.78-0.89,14.55-2,20"/>
	<path class="st1" d="M358,383.46c3.25,36.49,11.84,63.87,19,82c16.25,41.17,31.76,51.49,35,85c2.11,21.8-4.52,16.71-9,67
		c-0.9,39.82,3.04,60.96,7,73c2.66,8.09,7.45,18.47,6,33c-0.93,9.33-3.72,13.22-1,17c4.27,5.93,13.58,3.82,36,1
		c15.63-1.97,17.16-3.96,18-5c5.58-6.91-1.84-17.97-5-35c-1.75-9.42-1.14-15.93,3-42c11.02-69.38,13.98-68.9,13-81
		c-2.17-26.85-17.6-39.97-38-68c-18.93-26.02-42.26-65.04-60-121"/>
	<path class="st1" d="M415,729.46c-0.32,10.4-0.55,25.19,0,43c0.91,29.77,3,36.22,8,40c4.81,3.64,7.75,1.35,34,0
		c24.43-1.26,32.3,0.19,37-6c0.85-1.12,1.47-2.33,4-18c1.47-9.1,2.53-15.7,3-20c2.24-20.64-3.29-43.96-4-47
		c-5.13-21.93-10.97-64.02-18-132"/>
	<path class="st1" d="M471,731.46c10,6.33,20,12.67,30,19"/>
	<path class="st1" d="M413,726.46c19-1.33,38-2.67,57-4"/>
	<path class="st1" d="M512,404.46c17.58,26.87,38.38,67.84,40,119c1.26,39.7-10.57,36.89-10,87c0.84,74.53,1.26,111.8,10,138
		c0,0,0,0.23,0,15l0,0c-16.67-2.67-33.33-5.33-50-8"/>
	<path class="st1" d="M500,740.46c17.33,2.67,34.67,5.33,52,8"/>
	<path class="st1" d="M495,802.46c-3.56,10.95-6.75,26.48,1,35c8.23,9.05,21.94,2.63,54,0c52.65-4.31,72.92,6.74,90-10
		c0.64-0.63,13.75-13.74,10-23c-5.28-13.03-37.68-2.9-72-21c-12.21-6.44-20.75-14.39-26-20"/>
	<path class="st1" d="M511,241.46c77.68,6.5,116.45,39.69,130,53c13.12,12.88,26.08,32.25,52,71c22.97,34.34,26.78,44.45,29,54
		c9.29,40.02-6.52,82.28-18,83c-4.35,0.27-5.21-7.08-18-20c-14.77-14.92-23.26-14.84-29-25c-3.74-6.6-6.28-17.49,0-36"/>
	<path class="st1" d="M512,404.46c1.65,5.13,18.75,55.23,71,72c42.5,13.64,78.24-4.42,85-8"/>
	<path class="st1" d="M547,362.46c3.93,1.48,15.53,6.43,23,19c4.48,7.54,5.66,14.76,6,19"/>
	<path class="st1" d="M580,475.46c4.61,4.24,11.74,11.04,20,20c9.21,9.99,11.87,14.03,16,14c9.08-0.07,15.95-19.74,19-30"/>
	<path class="st1" d="M573,472.46c-9.67,36-19.33,72-29,108"/>
	<path class="st1" d="M616,509.46c-2.76,28.05-8.44,49.68-13,64c-5.94,18.65-9.15,22.35-20,52c-7.76,21.22-14.22,38.86-19,59
		c-4.25,17.91-8.74,44.35-8,78"/>
	<path class="st1" d="M564,564.46c8,3,16,6,24,9"/>
	<path class="st1" d="M657,473.46c-12.77,64.57-19.33,113.76-23,148c-5.85,54.52-4.93,76.09-23,100c-8.41,11.13-27.93,32.03-22,42
		c0.92,1.54,1.78,1.7,9,6c17.47,10.41,19.39,13.65,23,13c7.09-1.27,9.04-15.4,13-32c6.2-25.99,6.86-14.13,25-72
		c7.2-22.98,10.8-34.47,14-49c4.27-19.41,2.97-20.29,8-44c4.79-22.58,9.93-40.41,13-51c3.75-12.94,7.26-23.82,10-32"/>
	<path class="st1" d="M722,419.46c47.41,9.16,73.23,57.4,60,95c-11.8,33.55-53.43,55.04-94,42"/>
	<path class="st1" d="M719,480.46c7-3.67,14-7.33,21-11l0,0c1.39,2.29,3,5.76,3,10c0,4.66-1.96,7.88-3,10
		c-4.71,9.63,0.83,14.61-1,29c-1.44,11.32-6.31,19.68-10,26c-4.1,7.03-8.52,12.33-12,16"/>
	<g>
		<g>
			<path class="st2" d="M419.47,183.44c25.7-14.24,73.45-36.11,136.26-38.52c32.51-1.24,115.53-4.42,183.21,55.5
				c68.24,60.41,76.06,145.27,76.41,178.77"/>
			<g>
				<polygon class="st3" points="807.56,373.2 815.3,376.6 823.12,373.38 815.13,391.73 				"/>
			</g>
		</g>
	</g>
</g>
<g id="Camada_5">
</g>
<g id="Camada_6">
</g>
</svg>
