<?xml version="1.0" encoding="utf-8"?>
<!-- Generator: Adobe Illustrator 24.0.1, SVG Export Plug-In . SVG Version: 6.00 Build 0)  -->
<svg version="1.1" id="Camada_1" xmlns="http://www.w3.org/2000/svg" xmlns:xlink="http://www.w3.org/1999/xlink" x="0px" y="0px"
	 viewBox="0 0 1080 1080" style="enable-background:new 0 0 1080 1080;" xml:space="preserve">
<style type="text/css">
	.st0{fill:#272525;}
</style>
<g id="XMLID_36584_">
	<path id="XMLID_36594_" class="st0" d="M685.78,889.04h0.05c3.57,0,7.09-1.35,9.81-3.9l153.18-144.43
		c2.88-2.73,4.33-6.47,4.36-10.31c1.51-2.52,2.44-5.45,2.44-8.61V186.83c0-33.34-27.12-60.48-60.46-60.48H285.13
		c-33.34,0-60.47,27.14-60.47,60.48v645.69c0,33.36,27.13,60.49,60.47,60.49h389.92C679.16,893,682.86,891.47,685.78,889.04z
		 M700.12,841.64v-55.51c0-22.9,18.63-41.52,41.52-41.52h61.37L700.12,841.64z M658.27,859.43H285.13
		c-14.83,0-26.91-12.07-26.91-26.91V186.83c0-14.83,12.08-26.91,26.91-26.91h510.02c14.83,0,26.9,12.08,26.9,26.91v518.19h-78.38
		c-47.08,0-85.4,38.31-85.4,85.39V859.43z"/>
	<path id="XMLID_36591_" class="st0" d="M355.31,349.48h369.65c9.28,0,16.78-7.52,16.78-16.79v-30.07c0-9.27-7.5-16.79-16.78-16.79
		H355.31c-9.27,0-16.78,7.52-16.78,16.79v30.07C338.53,341.96,346.05,349.48,355.31,349.48z M358.68,305.98h362.93v23.36H358.68
		V305.98z"/>
	<path id="XMLID_36588_" class="st0" d="M355.31,454.68h369.65c9.28,0,16.78-7.51,16.78-16.79v-30.06c0-9.28-7.5-16.8-16.78-16.8
		H355.31c-9.27,0-16.78,7.52-16.78,16.8v30.06C338.53,447.17,346.05,454.68,355.31,454.68z M358.68,411.18h362.93v23.36H358.68
		V411.18z"/>
	<path id="XMLID_36585_" class="st0" d="M741.75,543.12v-30.07c0-9.27-7.5-16.78-16.78-16.78H355.31c-9.27,0-16.78,7.52-16.78,16.78
		v30.07c0,9.27,7.52,16.79,16.78,16.79h369.65C734.25,559.91,741.75,552.39,741.75,543.12z M721.61,539.77H358.68v-23.36h362.93
		V539.77z"/>
</g>
</svg>
