<?xml version="1.0" encoding="utf-8"?>
<!-- Generator: Adobe Illustrator 24.0.1, SVG Export Plug-In . SVG Version: 6.00 Build 0)  -->
<svg version="1.1" id="Camada_1" xmlns="http://www.w3.org/2000/svg" xmlns:xlink="http://www.w3.org/1999/xlink" x="0px" y="0px"
	 viewBox="0 0 1080 1080" style="enable-background:new 0 0 1080 1080;" xml:space="preserve">
<style type="text/css">
	.st0{fill:#FFFFFF;stroke:#FFFFFF;stroke-width:0.25;stroke-miterlimit:10;}
	.st1{fill:#FFFFFF;}
	.st2{fill:#000E3F;}
	.st3{fill:#FFFFFF;stroke:#FFFFFF;stroke-miterlimit:10;}
	.st4{fill:none;}
</style>
<g>
	<path class="st0" d="M688.76,126.78C494.24,54.17,279.31,230.84,279.31,547.76c0,316.91,214.93,493.59,409.44,420.97
		c144.62-53.99,237.2-237.38,237.2-420.97C925.96,364.16,833.38,180.77,688.76,126.78z M688.76,940.62
		c-179.46,62.52-373.06-104.11-373.06-392.87c0-288.76,193.61-455.39,373.06-392.87c136.13,47.43,224.52,219.09,224.52,392.87
		C913.27,721.53,824.89,893.2,688.76,940.62z"/>
	<g>
		<path class="st1" d="M798.32,783.97c-1.83-4.3-5.8-4.93-8.88-1.38c-3.1,3.58-4.11,10-2.24,14.33l11.34,26.23
			c1.82,4.21,5.73,4.65,8.72,1.02c2.98-3.61,3.93-9.92,2.15-14.11L798.32,783.97z"/>
		<path class="st1" d="M416.82,540.37c0-3.6-5.4-6.54-12.11-6.57l-42.73-0.2c-7.2-0.03-13.09,3-13.09,6.77s5.89,6.81,13.09,6.77
			l42.73-0.2C411.43,546.91,416.82,543.97,416.82,540.37z"/>
		<path class="st1" d="M467.8,735.85c-2.25-2.81-8.3-1.73-13.56,2.45l-33.46,26.58c-5.64,4.48-8.33,10.53-5.97,13.47
			s8.85,1.63,14.45-2.9l33.21-26.89C467.69,744.33,470.06,738.65,467.8,735.85z"/>
		<path class="st1" d="M577.46,846.25c-3.31-1.41-8.13,2.41-10.78,8.58l-16.87,39.26c-2.84,6.61-2.35,13.22,1.12,14.69
			c3.48,1.47,8.57-2.76,11.35-9.4l16.51-39.41C581.37,853.77,580.77,847.65,577.46,846.25z"/>
		<path class="st1" d="M691.58,911.45c3.6-0.14,6.33-5.65,6.1-12.36l-1.46-42.71c-0.25-7.2-3.5-12.96-7.28-12.82
			c-3.77,0.15-6.57,6.15-6.26,13.34l1.86,42.69C684.83,906.31,687.98,911.59,691.58,911.45z"/>
		<path class="st1" d="M809.94,826.66c3.28-1.49,4.05-6.91,1.7-12.15l-14.93-33.35c-2.52-5.62-7.36-8.95-10.8-7.39
			s-4.11,7.4-1.54,12.99l15.3,33.19C802.08,825.16,806.66,828.15,809.94,826.66z"/>
		<path class="st1" d="M873.91,690.17c2.23-2.82,1.88-6.86-0.82-9.03l-17.15-13.81c-2.89-2.33-7.15-1.83-9.49,1.13
			c-2.34,2.96-1.84,7.22,1.09,9.5l17.4,13.5C867.67,693.58,871.68,692.99,873.91,690.17z"/>
		<path class="st1" d="M896.31,547.52c0.04-3.6-1.89-6.57-4.34-6.63l-15.6-0.39c-2.63-0.06-4.82,2.94-4.86,6.72
			c-0.04,3.78,2.07,6.83,4.7,6.83l15.61-0.01C894.26,554.04,896.27,551.12,896.31,547.52z"/>
		<path class="st1" d="M872.92,392.19c-2.24-2.82-6.16-3.46-8.77-1.42l-16.62,12.97c-2.8,2.19-3.18,6.37-0.83,9.32
			c2.35,2.95,6.51,3.52,9.27,1.28l16.37-13.29C874.92,398.96,875.17,395,872.92,392.19z"/>
		<path class="st1" d="M795.91,260.67c-3.35-1.31-7.5,1.23-9.28,5.71l-11.32,28.49c-1.91,4.8-0.62,9.84,2.9,11.21
			c3.52,1.37,7.88-1.46,9.72-6.29l10.95-28.64C800.59,266.65,799.26,261.97,795.91,260.67z"/>
		<path class="st1" d="M686.83,186c-3.59,0.19-6.27,5.23-5.97,11.29l1.89,38.59c0.32,6.5,3.64,11.66,7.41,11.45
			c3.77-0.2,6.51-5.69,6.12-12.18l-2.29-38.57C693.63,190.52,690.43,185.81,686.83,186z"/>
		<path class="st1" d="M537.22,197.6c-3.32,1.4-3.8,7.83-1.06,14.41l17.45,41.93c2.94,7.06,8.17,11.65,11.65,10.19
			s3.84-8.41,0.84-15.45l-17.82-41.77C545.48,200.35,540.54,196.21,537.22,197.6z"/>
		<path class="st1" d="M409.03,333.56c-1.33,3.34,1.79,7.75,7,9.86l33.21,13.43c5.6,2.26,11.31,1.27,12.7-2.24
			c1.4-3.51-2.07-8.15-7.69-10.35L420.9,331.2C415.65,329.15,410.36,330.21,409.03,333.56z"/>
	</g>
	<g>
		<path class="st1" d="M690.18,591.37c-5.6,0-10.16-4.51-10.22-10.12l-2.67-269.11c-0.05-5.65,4.48-10.27,10.12-10.32
			c0.03,0,0.07,0,0.1,0c5.6,0,10.16,4.51,10.22,10.12l2.67,269.11c0.05,5.65-4.48,10.27-10.12,10.32
			C690.25,591.37,690.21,591.37,690.18,591.37z"/>
	</g>
	<g>
		<path class="st1" d="M530.12,596.11c-5.56,0-10.12-4.46-10.22-10.04c-0.1-5.65,4.39-10.3,10.04-10.4l156.86-2.81
			c5.56-0.12,10.3,4.39,10.4,10.04c0.1,5.65-4.39,10.3-10.04,10.4l-156.86,2.81C530.25,596.11,530.19,596.11,530.12,596.11z"/>
	</g>
	<path class="st2" d="M690.92,966.25"/>
	<path class="st1" d="M922.59,706.82c13.19-54.71,18.23-111.22,17.18-167.44c-0.75-28.11-2.7-56.24-7.19-83.98l-3.51-20.78
		l-1.75-10.39c-0.55-3.47-1.54-6.85-2.29-10.28l-4.84-20.5c-0.84-3.41-1.53-6.85-2.49-10.22l-3.07-10.07
		c-16.01-53.74-39.4-105.41-71.24-151.42c-15.76-23.07-33.36-44.9-52.87-64.83l-7.36-7.43c-2.48-2.45-5.07-4.77-7.6-7.17
		c-5.03-4.83-10.36-9.31-15.63-13.85c-5.37-4.38-10.75-8.91-16.4-12.92c-5.63-4.04-11.08-8.34-17.01-11.92L717.79,98l-9.03-5.09
		c-5.93-3.56-12.28-6.29-18.46-9.37c-12.65-5.47-25.54-10.44-38.92-13.74c-26.68-6.92-54.39-8.96-82.09-7.21
		c-13.89,0.87-27.91,1.92-41.52,3.93c-13.66,1.99-27.13,4.96-40.28,8.99c-13.17,3.95-25.95,9.13-38.28,15.22
		c-6.23,2.91-12.18,6.38-18.18,9.75c-3.01,1.67-5.84,3.65-8.77,5.45c-2.88,1.88-5.87,3.6-8.62,5.68
		c-5.59,4.03-11.29,7.9-16.58,12.34l-8.07,6.47l-7.73,6.9c-5.16,4.52-10.3,9.35-15.27,14.21c-5.03,4.82-9.84,9.81-14.68,14.8
		c-19.09,20.16-36.38,41.98-51.72,65.09l-5.67,8.72c-1.92,2.89-3.78,5.81-5.47,8.84l-10.44,18l-9.54,18.49
		c-1.65,3.05-3.11,6.2-4.49,9.38l-4.26,9.49l-4.26,9.49c-1.39,3.18-2.52,6.46-3.79,9.69l-7.43,19.43l-6.3,19.84l-3.14,9.92
		l-2.56,10.09l-5.1,20.18c-1.48,6.78-2.63,13.63-3.96,20.44l-1.94,10.23l-0.97,5.11l-0.65,5.17L217,464.61
		c-3.4,27.56-4.52,55.4-4.15,83.18c0.95,55.53,8.23,111.19,22.59,164.63c14.58,53.35,36.6,104.79,68.14,149.83
		c31.11,45.18,71.57,84.07,119.04,111.43c23.58,13.88,48.84,24.93,75.06,32.73c26.22,7.63,53.42,12.52,80.67,12.54
		c54.56,0.07,109.31-16.64,157.15-44.5c23.88-14.1,46.35-30.79,66.52-50.04c20.3-19.1,38.46-40.57,54.12-63.78
		c15.65-23.21,29.12-47.96,40.11-73.8C907.18,760.94,915.86,734.12,922.59,706.82z M924.58,707.3
		c-12.76,54.92-33.58,108.34-64.19,156.11c-30.24,47.9-70.83,89.76-119.21,120.38c-12.15,7.55-24.67,14.53-37.6,20.74
		c-12.99,6.09-26.32,11.47-39.97,16.03c-27.33,8.92-55.95,14.64-85.1,15.37c-29.14,0.69-58.13-3.58-86.08-11.16
		c-27.91-7.81-54.82-19.09-80.02-33.38c-50.39-28.73-93.34-69.67-126.28-117.04c-33.11-47.46-55.48-101.44-70.24-156.71
		c-14.24-55.57-20.99-112.57-21.33-169.67c-0.06-28.54,1.42-57.12,5.24-85.42l2.94-21.22l0.74-5.3l1.05-5.25l2.11-10.51
		c1.45-6.99,2.72-14.03,4.32-20.99l5.48-20.73l2.73-10.36l3.33-10.19l6.68-20.37l7.84-19.96c1.34-3.31,2.54-6.68,4-9.94l4.48-9.74
		l4.48-9.74c1.46-3.26,2.99-6.49,4.72-9.63l10-18.97l10.93-18.45c1.78-3.1,3.72-6.1,5.72-9.06l5.93-8.94
		c16.02-23.67,34.05-46,53.89-66.57c5.02-5.08,10.03-10.18,15.21-15.06c5.14-4.94,10.31-9.71,15.78-14.43l8.1-7.09l8.47-6.67
		c5.55-4.57,11.54-8.57,17.42-12.72c2.89-2.14,6.03-3.92,9.07-5.86c3.08-1.86,6.06-3.9,9.22-5.62c6.31-3.48,12.57-7.05,19.14-10.04
		c12.98-6.26,26.45-11.58,40.3-15.6c13.82-4.1,27.97-7.07,42.2-9.02c14.28-1.97,28.39-2.88,42.62-3.65
		c14.26-0.69,28.68-0.61,43.01,0.75c14.33,1.33,28.56,3.89,42.48,7.57c13.97,3.59,27.4,8.9,40.53,14.73
		c6.41,3.25,12.99,6.17,19.12,9.92l9.32,5.37l8.98,5.91c6.08,3.81,11.65,8.32,17.39,12.58c5.78,4.24,11.11,8.87,16.58,13.48
		c5.33,4.73,10.71,9.41,15.77,14.41c2.55,2.48,5.16,4.9,7.65,7.44l7.39,7.69c19.59,20.63,37.15,43.1,52.79,66.77
		c31.48,47.3,53.98,100.07,69.03,154.51l2.94,10.18c0.92,3.41,1.57,6.89,2.37,10.33l4.57,20.69c0.71,3.46,1.65,6.87,2.16,10.37
		l1.61,10.47l3.23,20.93c4.17,27.94,5.54,56.19,6.14,84.37c0.4,28.2-0.78,56.42-3.52,84.49
		C935.54,651.91,931.08,679.83,924.58,707.3z"/>
	<path class="st3" d="M661.95,68.41c0.64-2.6-17.15-9.15-20.7-10.26c-12.74-4-29.93-7.99-47.44-10.18l0,0
		c-0.35-0.06-58.22-9.29-115.85,3.41c-62.82,13.85-151.62,56.41-221.48,136.29C144.1,316.17,141.51,471.72,140.63,528.4
		c-0.89,56.61-4.2,262.95,146.52,398.66c22.45,20.22,101.59,89.28,221.48,102.22c102.76,11.09,187.97-24.2,187.41-27.26
		c-0.52-2.82-73.03,27.08-160.15,13.63C353.49,987.5,253.37,791.91,249.35,783.78c-50.77-102.71-46.62-196.17-43.98-255.38
		c1.78-40.09,16.76-289.56,184-402.07c54.69-36.79,112.44-51.11,112.44-51.11c21.33-5.3,63.25-15.72,115.85-10.22
		C636.32,66.95,661.22,71.42,661.95,68.41z"/>
	<path class="st4" d="M922.4,705.54c28.84-112.13,17.53-215.26,13.07-247.81c-31.28-228.27-174.3-333.42-201.04-353.07
		C646.45,39.98,566.2,44.19,521.11,47.41c-40.12,2.87-117.51,9.75-199.77,81.2c-35.28,30.64-155.72,135.27-178.63,341.83
		c-13.76,124.04,14.4,224.62,21,247.26c67.94,232.97,256.32,315.23,384.46,313.17C675.83,1028.83,861.86,940.97,922.4,705.54z"/>
</g>
</svg>
