<?xml version="1.0" encoding="utf-8"?>
<!-- Generator: Adobe Illustrator 24.0.1, SVG Export Plug-In . SVG Version: 6.00 Build 0)  -->
<svg version="1.1" xmlns="http://www.w3.org/2000/svg" xmlns:xlink="http://www.w3.org/1999/xlink" x="0px" y="0px"
	 viewBox="0 0 1080 1080" style="enable-background:new 0 0 1080 1080;" xml:space="preserve">
<style type="text/css">
	.st0{display:none;}
	.st1{fill:none;stroke:#FFFFFF;stroke-width:6;stroke-miterlimit:10;}
	.st2{fill:none;stroke:#FF0000;stroke-width:6;stroke-miterlimit:10;}
	.st3{fill:#FF0000;}
	.st4{fill:none;stroke:#000000;stroke-width:6;stroke-miterlimit:10;}
	.st5{fill:none;stroke:#F40000;stroke-width:6;stroke-miterlimit:10;}
	.st6{fill:#F40000;}
	.st7{fill:none;stroke:#000000;stroke-width:6;stroke-linecap:round;stroke-linejoin:round;stroke-miterlimit:10;}
	.st8{fill:none;stroke:#FFFFFF;stroke-width:6;stroke-linecap:round;stroke-linejoin:round;stroke-miterlimit:10;}
	.st9{fill:none;stroke:#000000;stroke-width:6;stroke-linecap:round;stroke-miterlimit:10;}
	.st10{fill:none;stroke:#FFFFFF;stroke-width:6;stroke-linecap:round;stroke-miterlimit:10;}
</style>
<g id="Camada_4" class="st0">
</g>
<g id="_x31_">
	<g id="Camada_3">
	</g>
</g>
<g id="_x32_">
	<path class="st1" d="M662.52,540.87c-1.38-3.07-3.17-7.01-5.52-12.21c-11.04-24.41-20.11-44.31-26.29-57.84"/>
	<path class="st1" d="M498.9,464.52c-4.87,17.03-11.47,33.99-19.01,50.01c-8.48,18.84-17.9,37.68-19.78,58.41
		c-0.94,20.73,2.83,42.39,0.94,63.12c-2.83,21.67-2.83,42.39-7.54,65c0,0.94-1.88,1.88-1.88,2.83
		c-5.65,22.61-27.32,33.91-37.68,53.7c-19.78,37.68-10.36,79.13-16.01,119.64c-2.83,19.78-9.42,36.74-19.78,53.7
		c-8.48,12.25-18.84,20.73-27.32,32.03c-7.54,8.48-3.77,20.73,5.65,25.44c12.25,6.59,26.38,4.71,39.57,4.71
		c23.55-10.36,32.97-38.62,28.26-64.06c-2.83-13.19-1.88-25.44,0.94-38.62c3.77-18.84,10.36-34.86,21.67-50.87
		c9.42-12.25,15.07-25.44,20.73-38.62c4.71-12.25,3.77-26.38,7.54-38.62c5.65-15.07,13.19-27.32,23.55-39.57
		c4.71-7.54,9.42-14.13,14.13-21.67c17.9-32.97,27.32-66.89,38.62-101.74c2.83-10.36,4.71-19.78,8.48-30.15
		c0.94-1.88,2.83-3.77,5.65-3.77c8.48-0.94,15.07,4.71,18.84,12.25c5.65,13.19,8.48,27.32,12.25,41.45
		c6.59,19.78,14.13,38.62,21.67,58.41c5.65,13.19,11.3,24.49,19.78,36.74c1.88,2.83,2.83,6.59,5.65,10.36
		c2.83,2.83,4.71,5.65,6.59,9.42c0.94,0.94,1.88,1.88,2.83,2.83c3.77,5.65,5.65,11.3,6.59,17.9c0.94,16.96-2.83,33.91,3.77,49.93
		c2.83,6.59,8.48,11.3,13.19,16.96c1.88,1.88,2.83,4.71,3.77,6.59c0.94,0.94,1.88,1.88,2.83,2.83
		c16.96,26.38,22.61,59.35,5.65,86.67c-9.42,15.07,3.77,29.2,16.01,38.62c16.01,11.3,32.97,16.96,52.75,21.67
		c4.71,0.94,9.42,0,14.13-1.88c7.54-3.77,11.3-11.3,9.42-19.78c-2.83-12.25-17.9-12.25-27.32-18.84
		c-8.48-5.65-15.07-12.25-19.78-21.67c-0.94-1.88-0.94-4.71-2.83-6.59c-1.88-4.71-1.88-9.42-1.88-14.13
		c-0.94-22.61,0.94-44.28,0-66.89c-0.94-10.36-2.83-20.73-6.59-31.09c-4.71-11.3-13.19-20.73-17.9-32.03
		c-3.77-11.3-5.65-23.55-6.59-35.8c0-30.15,2.83-60.29-4.71-90.44c-0.94-3.77-1.88-7.54-1.88-11.3c0-0.94-1.88-1.88-1.88-2.83
		c-2.45-11.01-5.19-21.72-8.3-32.22"/>
	<path class="st1" d="M395.5,887.83c3.99,1.52,9.91,3.22,17.22,3.44c4.99,0.15,9.29-0.43,12.63-1.15"/>
	<path class="st1" d="M390.91,907.34c4.11,1.48,10,3.09,17.22,3.44c5.98,0.3,11.08-0.36,14.92-1.15"/>
	<path class="st1" d="M698.51,883.24c3.55,1.49,9.57,3.48,17.22,3.44c5.8-0.03,10.54-1.21,13.77-2.3"/>
	<path class="st1" d="M696.22,901.6c4.28,1.6,11.06,3.54,19.51,3.44c6.12-0.07,11.22-1.18,14.92-2.3"/>
	<path class="st1" d="M497.65,470.04c17.45,5.28,41.34,10.6,70.01,11.48c25.68,0.79,47.6-2.21,64.28-5.74"/>
	<path class="st1" d="M459.77,637.61c23.72,7.27,47.44,14.54,71.16,21.81"/>
	<path class="st1" d="M613.58,662.87c10.78-6.48,23.81-13.33,39.02-19.51c14.21-5.77,27.43-9.79,39.02-12.63"/>
	<path class="st1" d="M493.06,480.37c21.15,7.07,53.06,14.68,91.82,12.63c19.47-1.03,36.5-4.28,50.5-8.03"/>
	<path class="st1" d="M636.36,383.9c-2.1,13.09-3.8,27.67-4.66,43.54c-0.88,16.35-0.73,31.43,0,45"/>
	<path class="st1" d="M497.7,468.34c17.95-43.78,13.87-68.31,6.47-82.71c-4.09-7.96-11.23-16.79-11.47-31.19
		c-0.14-8.38,2.91-17.25,9-35c5.93-17.28,7.57-18.16,9-27c1.61-9.99,3.1-19.22-1-29c-4.04-9.63-11.11-14.12-9-19
		c1.1-2.55,4.3-4.25,7-4c4.95,0.47,7.61,7.46,10,12c8.3,15.76,24.57,23.27,37,29c11.85,5.47,20.97,9.67,32,7
		c14.44-3.5,23.72-16.75,26-20c1.87-2.66,12.56-21.28,10-17c0,0,8.44-0.57,12,2c5.13,4.86,0.38,14.15,1,25
		c0.97,16.84,14.07,23.41,20,35c5.98,11.69,6.78,32.62-20,73"/>
	<g>
		<g>
			<path class="st2" d="M660.7,233.44c1.63-2.53,23.48-37.7,7-74c-12.46-27.43-42.02-44.98-74.52-44.2"/>
			<g>
				<polygon class="st3" points="598.43,107.15 595.78,115.18 599.72,122.65 580.7,116.44 				"/>
			</g>
		</g>
	</g>
	<path class="st1" d="M500.7,383.34c46.33,0.33,92.67,0.67,139,1"/>
	<path class="st1" d="M498.7,329.44c-0.88-5.59-3.02-13.72-9-21c-7.39-9-16.92-12.19-22-14c-2.01-0.72-20.34-9.81-57-28
		c-44.48-22.07-47.76-27.21-49-31c-4.29-13.07,3.39-27.26,13-45c2.14-3.96,9.4-16.89,23-31c17.46-18.12,34.81-27.22,48-34
		c13.61-7,20.42-10.49,31-12c4.89-0.7,23.97-2.7,42,8c1.75,1.04,13.3,8.02,12,12c-0.78,2.39-6.02,3.09-36,2
		c-28.7-1.04-30.91-0.29-34,1c-10.89,4.55-10.77,11.63-28,35c-18.36,24.92-28.38,30.29-26,39c0.81,2.95,2.68,4.96,26,16
		c5.33,2.52,30.61,14.37,51,18c4.31,0.77,10.85,1.6,18-1c2.73-0.99,4.79-2.21,6-3"/>
	<path class="st1" d="M583.7,231.44c10.15,5.72,25.79,13.59,46,20c16.38,5.2,20.4,4.56,27,7c35.57,13.15,44.17,78,50,122
		c2.16,16.26,8.79,66.35-2,109c-1.69,6.68-4.96,17.71-8,35c-4.45,25.25-2.37,29.47-7,48c-1.82,7.28-8.79,33.22-24,43
		c-2.02,1.3-6.7,4.22-13,4c-1.6-0.06-9.51-0.33-12-5c-3.14-5.89,3.72-16.12,9-24c1.97-2.94,4.27-5.93,6-11c1.15-3.36,3.09-9.04,1-11
		c-4.04-3.8-19.79,9.45-22,7c-2.16-2.4,10.67-17.53,17-25c13.35-15.75,13.75-13.81,17-19c5.73-9.17,3.13-13.08,5-54
		c0.92-20.07,2.15-32.47,3-40c0.36-3.17,0.69-5.92,0.98-8.22c0.54-4.3,0.96-7.34,1.02-7.78c2.47-18.46-5-37-5-37
		c-5.98-14.85-15.46-24.27-21-29"/>
	<path class="st10" d="M476.7,262.44c4.8,5.17,11.92,14.11,17,27c5.02,12.73,5.95,23.98,6,31"/>
	<path class="st1" d="M484.7,212.44c7.97,13.76,19.24,20.85,26,25c7.61,4.67,15.86,9.73,28,11c5.17,0.54,21.93,2.29,35-9
		c2.31-1.99,7.52-6.5,10-14c1.11-3.37,2.88-10.98-10-39c-8.55-18.62-13.04-28.09-23-36c-6.06-4.81-12.31-9.77-21-10
		c-11.57-0.3-20.05,8.46-37,26c-13.16,13.62-14.54,18.87-15,22C476.31,197.95,480.81,205.71,484.7,212.44z"/>
	<path class="st1" d="M484.7,212.44c-2.71-1.61-18.95-11.64-22-31c-1.62-10.31,1.29-18.19,2-20c8.18-20.87,32.96-25.64,35-26"/>
	<path class="st1" d="M475.7,205.44c2.08,4.5,4.9,12.18,5,22c0.06,6.09-0.94,11.22-2,15"/>
	<path class="st1" d="M521.7,135.44c10.67,5,21.33,10,32,15"/>
</g>
<g id="Camada_5">
</g>
<g id="Camada_6">
</g>
</svg>
