<?xml version="1.0" encoding="utf-8"?>
<!-- Generator: Adobe Illustrator 24.0.1, SVG Export Plug-In . SVG Version: 6.00 Build 0)  -->
<svg version="1.1" id="Camada_1" xmlns="http://www.w3.org/2000/svg" xmlns:xlink="http://www.w3.org/1999/xlink" x="0px" y="0px"
	 viewBox="0 0 1080 1080" style="enable-background:new 0 0 1080 1080;" xml:space="preserve">
<style type="text/css">
	.st0{fill:#FFFFFF;stroke:#FFFFFF;stroke-width:1.5;stroke-linecap:round;stroke-linejoin:round;stroke-miterlimit:10;}
</style>
<g>
	<path class="st0" d="M854.13,413h-0.84c1.04-7.42,2.27-14.79,2.27-22.49c0-89.1-72.24-161.33-161.34-161.33
		c-73.71,0-135.2,49.74-154.47,117.27c-19.27-67.53-80.76-117.27-154.47-117.27c-89.1,0-161.33,72.23-161.33,161.33
		c0,7.7,1.23,15.07,2.27,22.49h-2.27c0,0,21.45,172.14,315.81,417.71c0,0,273.86-222.06,311.27-403.65
		c0.54-2.35,1.11-4.66,1.56-7.04C852.98,417.7,853.81,415.31,854.13,413z"/>
</g>
<polygon id="XMLID_35906_" points="706.82,371.69 649.15,371.69 649.15,425.77 598.41,425.77 598.41,486.36 649.15,486.36 
	649.15,540.46 706.82,540.46 706.82,486.36 757.56,486.36 757.56,425.77 706.82,425.77 "/>
<polygon id="XMLID_35905_" points="722.43,439.51 743.82,439.51 743.82,472.62 722.43,472.62 693.08,472.62 693.08,526.73 
	662.9,526.73 662.9,472.62 637.17,472.62 612.15,472.62 612.15,439.51 637.17,439.51 662.9,439.51 662.9,385.43 693.08,385.43 
	693.08,439.51 "/>
</svg>
