<?xml version="1.0" encoding="utf-8"?>
<!-- Generator: Adobe Illustrator 24.0.1, SVG Export Plug-In . SVG Version: 6.00 Build 0)  -->
<svg version="1.1" id="Camada_2" xmlns="http://www.w3.org/2000/svg" xmlns:xlink="http://www.w3.org/1999/xlink" x="0px" y="0px"
	 viewBox="0 0 1080 1080" style="enable-background:new 0 0 1080 1080;" xml:space="preserve">
<path d="M312.91,366.85l19.41,9.2l-1.19,2.51l-19.41-9.2L312.91,366.85z"/>
<path d="M327.25,340.84l18.26,11.32l-1.46,2.36l-18.26-11.32L327.25,340.84z"/>
<path d="M344.4,316.65l16.87,13.3l-1.72,2.18l-16.87-13.3L344.4,316.65z"/>
<path d="M364.16,294.5l15.28,15.1l-1.95,1.97l-15.28-15.1L364.16,294.5z"/>
<path d="M386.26,274.71l13.5,16.71l-2.16,1.74l-13.5-16.71L386.26,274.71z"/>
<path d="M410.43,257.51l11.55,18.11l-2.34,1.49L408.09,259L410.43,257.51z"/>
<path d="M436.42,243.12l9.43,19.3l-2.49,1.22l-9.43-19.3L436.42,243.12z"/>
<path d="M463.85,231.75l7.2,20.24l-2.61,0.93l-7.2-20.24L463.85,231.75z"/>
<path d="M492.38,223.55l4.86,20.92l-2.7,0.63l-4.86-20.92L492.38,223.55z"/>
<path d="M521.66,218.63l2.47,21.34l-2.75,0.32l-2.47-21.34L521.66,218.63z"/>
<path d="M551.08,217l0.35,21.48l-2.77,0.05l-0.35-21.48L551.08,217z"/>
<path d="M580.88,218.69l-2.29,21.36l-2.76-0.3l2.29-21.36L580.88,218.69z"/>
<path d="M610.15,223.67l-4.68,20.96l-2.71-0.6l4.68-20.96L610.15,223.67z"/>
<path d="M638.68,231.93l-7.03,20.3l-2.62-0.91l7.03-20.3L638.68,231.93z"/>
<path d="M666.08,243.36l-9.27,19.37l-2.5-1.2l9.27-19.37L666.08,243.36z"/>
<path d="M692,257.78L680.61,276l-2.35-1.47l11.39-18.21L692,257.78z"/>
<path d="M716.15,275.03l-13.36,16.82l-2.17-1.72l13.36-16.82L716.15,275.03z"/>
<path d="M738.21,294.87l-15.16,15.23l-1.97-1.96l15.16-15.23L738.21,294.87z"/>
<path d="M757.92,317.05l-16.76,13.44l-1.73-2.16l16.76-13.44L757.92,317.05z"/>
<path d="M775.03,341.3l-18.16,11.48l-1.48-2.34l18.16-11.48L775.03,341.3z"/>
<path d="M789.32,367.31l-19.33,9.36l-1.21-2.5l19.33-9.36L789.32,367.31z"/>
<path d="M800.59,394.8l-20.27,7.12l-0.92-2.62l20.27-7.12L800.59,394.8z"/>
<path d="M808.67,423.35l-20.94,4.78l-0.62-2.7l20.94-4.78L808.67,423.35z"/>
<path d="M813.49,452.66l-21.35,2.39l-0.31-2.76l21.35-2.39L813.49,452.66z"/>
<path d="M815,481.86l-21.48,0.35l-0.05-2.77l21.48-0.35L815,481.86z"/>
<path d="M813.2,511.89l-21.35-2.38l0.31-2.76l21.35,2.38L813.2,511.89z"/>
<path d="M808.11,541.13l-20.95-4.77l0.62-2.7l20.95,4.77L808.11,541.13z"/>
<path d="M799.74,569.63l-20.27-7.1l0.92-2.62l20.27,7.1L799.74,569.63z"/>
<path d="M788.21,596.98l-19.34-9.35l1.21-2.5l19.34,9.35L788.21,596.98z"/>
<path d="M773.67,622.86L755.5,611.4l1.48-2.35l18.17,11.47L773.67,622.86z"/>
<path d="M756.33,646.94l-16.77-13.42l1.73-2.17l16.77,13.42L756.33,646.94z"/>
<path d="M736.41,668.93l-15.17-15.21l1.96-1.96l15.17,15.21L736.41,668.93z"/>
<path d="M714.15,688.55l-13.37-16.81l2.17-1.73l13.37,16.81L714.15,688.55z"/>
<path d="M384.28,685.68l13.49-16.72l2.16,1.74l-13.49,16.72L384.28,685.68z"/>
<path d="M362.37,665.68l15.27-15.11l1.95,1.97l-15.27,15.11L362.37,665.68z"/>
<path d="M342.83,643.35l16.86-13.31l1.72,2.18l-16.86,13.31L342.83,643.35z"/>
<path d="M325.89,618.97l18.25-11.34l1.46,2.36l-18.25,11.34L325.89,618.97z"/>
<path d="M311.82,592.85l19.4-9.21l1.19,2.5l-19.4,9.21L311.82,592.85z"/>
<path d="M300.76,565.29l20.32-6.96l0.9,2.62l-20.32,6.96L300.76,565.29z"/>
<path d="M292.9,536.66l20.98-4.62l0.6,2.71l-20.98,4.62L292.9,536.66z"/>
<path d="M288.32,507.34l21.36-2.23l0.29,2.76l-21.36,2.23L288.32,507.34z"/>
<path d="M287.05,477.55l21.48,0.35l-0.05,2.77l-21.48-0.35L287.05,477.55z"/>
<path d="M289.05,448.09l21.33,2.54l-0.33,2.75l-21.33-2.54L289.05,448.09z"/>
<path d="M294.37,418.91l20.91,4.92l-0.64,2.7l-20.91-4.92L294.37,418.91z"/>
<path d="M302.95,390.47l20.22,7.26l-0.94,2.61l-20.22-7.26L302.95,390.47z"/>
</svg>
