<?xml version="1.0" encoding="utf-8"?>
<!-- Generator: Adobe Illustrator 24.0.1, SVG Export Plug-In . SVG Version: 6.00 Build 0)  -->
<svg version="1.1" xmlns="http://www.w3.org/2000/svg" xmlns:xlink="http://www.w3.org/1999/xlink" x="0px" y="0px"
	 viewBox="0 0 1080 1080" style="enable-background:new 0 0 1080 1080;" xml:space="preserve">
<style type="text/css">
	.st0{fill:none;stroke:#FFFFFF;stroke-width:6;stroke-miterlimit:10;}
	.st1{fill:none;stroke:#FF0000;stroke-width:6;stroke-miterlimit:10;}
	.st2{fill:#FF0000;}
	.st3{fill:none;stroke:#000000;stroke-width:6;stroke-miterlimit:10;}
	.st4{fill:none;stroke:#F40000;stroke-width:6;stroke-miterlimit:10;}
	.st5{fill:#F40000;}
</style>
<g id="_x31_">
	<g id="Camada_3">
	</g>
	<path class="st0" d="M546.54,240.66c-4.62-0.12-17.65-1.11-28.02-10.97c-8.83-8.39-15.74-23.25-10.97-30.46
		c3.53-5.33,10.44-1.96,17.06-7.31c9.69-7.83,5.13-25.35,7.31-25.59c1.51-0.17,4.73,7.84,6.09,19.49
		c3.15,26.92-6.94,44.58-3.66,46.3c3.17,1.66,17.05-12.46,24.37-31.68c11.85-31.13-0.16-58.22-6.09-64.57
		c-1.23-1.32-2.58-2.77-4.87-3.66c-6.32-2.45-11.43,2.63-15.84,0c-1.42-0.85-1.53-1.76-3.66-6.09c0,0-3.28-6.71-8.53-14.62
		c0,0-4.26-6.42-10.97-12.18c-14.01-12.04-49.19-14.73-65.79,3.66c-4.96,5.49-12.81,17.9-12.18,31.68
		c0.29,6.38,2.23,12.09-1.22,18.28c-3.29,5.91-9.34,7.94-8.53,10.97c0.72,2.7,5.82,2.12,7.31,6.09c0.89,2.37,0.15,5.45,0,6.09
		c-0.6,2.52-1.61,3.27-1.22,4.87c0.46,1.92,2.14,1.89,2.44,3.66c0.37,2.18-1.93,3.7-1.22,4.87c0.52,0.85,1.93,0.35,2.44,1.22
		c0.55,0.94-0.64,2.31-1.22,3.66c-1.42,3.31,0.52,7.14,1.22,8.53c2.42,4.79,8.45,6.08,14.62,7.31c13.09,2.61,18.96-3.15,21.93,0
		c3.71,3.94-0.3,17.4-9.75,23.15c-7.49,4.56-17.04,3.07-23.15,0c-8.15-4.1-8.16-10.08-15.84-12.18c-7.21-1.98-13.92,1.45-15.84,2.44
		c-2.55,1.31-11.79,6.59-17.06,24.37c-8.42,28.39,0.27,65.67,12.18,109.65c12.74,47.05,16.29,48.13,15.84,64.57
		c-0.54,19.59-7.68,38.5-21.93,75.54c-16.98,44.11-18.38,38.28-23.15,56.05c-9.14,34.03-0.46,42.15-4.87,98.69
		c-3.07,39.28-4.6,58.92-13.4,74.32c-14.38,25.17-32.84,31.24-42.64,62.14c-2.06,6.48-3,15.69-4.87,34.11
		c-4.26,41.85-0.6,55.46-7.31,87.72c-2.71,13.03-5.6,21.84-9.75,30.46c-6.92,14.4-15.81,25.12-18.28,28.02
		c-13.55,15.96-20.33,16.37-21.93,25.59c-1.74,9.96,4.03,21.75,12.18,25.59c3.25,1.53,4.82,0.83,17.06,1.22
		c15.6,0.5,15.68,1.73,19.49,1.22c16.49-2.21,30.87-27.28,32.9-49.95c1.12-12.54-2.49-13.66-2.44-31.68
		c0.06-18.37,3.86-32.27,6.09-40.21c10.72-38.13,26.85-41.87,40.21-80.41c7.63-22.03,2.23-20.41,9.75-42.64
		c11.57-34.21,23.1-34.27,42.64-71.88c0,0,18.84-36.27,34.11-92.6c2.12-7.81,5.42-15.28,7.31-23.15c2.6-10.84,3.18-18.03,8.53-20.71
		c3.97-1.99,8.45-0.45,9.75,0c12.54,4.32,17,22.98,20.71,36.55c7.53,27.51,15.57,47.04,26.8,74.32
		c7.86,19.09,13.47,32.71,24.37,49.95c9.73,15.39,12.88,16.58,17.06,26.8c9.34,22.84-0.29,31.77,4.87,54.83
		c5.95,26.6,20.56,22.71,32.9,57.26c4.54,12.71,10.67,30.56,6.09,51.17c-4.12,18.55-12.54,19.62-12.18,31.68
		c0.78,26.51,42.16,44.33,63.36,49.95c11.41,3.03,25.39,6.54,32.9-1.22c5.47-5.66,6.41-16.19,2.44-23.15
		c-4.41-7.72-11.82-5.72-24.37-13.4c-13.23-8.1-20.89-20.07-24.37-28.02c-5.02-11.5-4.15-21.15-3.66-32.9
		c0.35-8.18,1.92-45.43-2.44-70.67c-5.43-31.46-17.95-31.85-26.8-64.57c-7.18-26.51-1.82-36.82-2.44-69.45
		c0,0-1.82-96.71-63.36-205.91c-1.25-2.22-3-5.22-4.87-9.75c-15.07-36.38,1.72-74.28-2.44-75.54c-1.47-0.45-2.78,4.56-8.53,9.75
		c-7.16,6.47-19.55,11.72-26.8,8.53c-14.96-6.59-8.65-49.41-7.31-58.48c4.82-32.66,18.34-59.86,19.49-62.14
		c4.16-8.22,15.64-29.42,19.49-47.52C545.42,251.54,546.38,247.05,546.54,240.66c0.26-10.09-1.79-12.28,0-18.28
		c1.71-5.74,6.36-13.02,13.4-14.62c3.42-0.78,6.4,0.01,10.97,1.22c5,1.32,8.33,2.2,10.97,4.87c4.98,5.04,4.24,13.14,3.66,19.49
		c-0.68,7.44-2.92,12.89-3.66,14.62c-6.19,14.57-14.55,21.15-19.49,28.02c-12.87,17.87,1.77,31.47-3.66,80.41
		c-1.88,17.01-5.44,31.5-6.09,34.11c-1.75,7.02-3.51,12.84-4.87,17.06"/>
	<path class="st0" d="M434.45,233.35c14.83,11.11,32.67,22.94,53.61,34.11c15.97,8.52,31.17,15.3,45.08,20.71"/>
	<path class="st0" d="M384.5,301.58c4.43,0.3,9.82-0.16,13.4-3.66c7.5-7.32,3.35-24.35,3.66-24.37c0.14-0.01-0.22,3.84,1.22,7.31
		c2.73,6.59,10.53,8.44,20.71,12.18c13.02,4.79,8.59,4.83,24.37,10.97c4.22,1.64,17.38,6.64,35.33,10.97
		c9.3,2.24,20.8,4.53,34.11,6.09"/>
	<path class="st0" d="M557.51,295.48c31.48,1.65,55.69,0.95,71.88,0c13.99-0.82,21.33-1.8,29.24-3.66
		c13.53-3.17,24.02-5.58,36.55-12.18c8.9-4.69,13.9-8.93,20.71-7.31c5.27,1.26,5.7,4.61,13.4,7.31c4.53,1.58,5.44,0.8,15.84,2.44
		c7.17,1.13,14.63,2.31,14.62,3.66c-0.01,1.48-9.02,3.29-17.06,3.66c-7.71,0.35-10.58-0.8-12.18,1.22
		c-2.71,3.41,3.4,9.26,1.22,15.84c-1.61,4.85-6.76,7.21-9.75,8.53c-17.74,7.82-32.49-3.78-57.26-1.22
		c-12.28,1.27-7.61,4.01-35.33,10.97c-21.82,5.47-36.74,5.93-41.42,6.09c-11.5,0.39-21.14-0.38-28.02-1.22"/>
	<path class="st0" d="M399.12,362.5c15.95,5.33,35.63,10.46,58.48,13.4c17.14,2.2,32.74,2.74,46.3,2.44"/>
	<path class="st0" d="M535.58,239.44c-0.14,4.52-1.05,14.26-7.31,24.37c-5.33,8.61-12.07,13.5-15.84,15.84"/>
	<path class="st0" d="M430.8,127.35c1.11-0.67,19.6-11.56,31.68-3.66c6.09,3.99,9.38,11.98,10.97,15.84
		c2.89,7.02,1.67,8.98,4.87,15.84c2.64,5.66,8.11,14.25,12.18,13.4c2.4-0.5,2.21-3.85,7.31-8.53c2.53-2.32,4.17-3.83,6.09-3.66
		c4.49,0.4,9.27,9.8,7.31,17.06c-0.81,3.01-2.02,2.85-6.09,10.97c-2.36,4.71-2.85,6.56-2.44,8.53c0.68,3.24,3.46,5.23,4.87,6.09"/>
	<path class="st0" d="M527.05,123.69c2.64,4.54,7.03,13.55,7.31,25.59c0.17,7.09-1.15,12.96-2.44,17.06"/>
	<path class="st0" d="M295.56,910.77c4.23,1.61,10.52,3.42,18.28,3.66c5.3,0.16,9.86-0.46,13.4-1.22"/>
	<path class="st0" d="M290.68,931.48c4.37,1.57,10.62,3.28,18.28,3.66c6.35,0.31,11.76-0.38,15.84-1.22"/>
	<path class="st0" d="M617.21,905.89c3.77,1.58,10.16,3.69,18.28,3.66c6.16-0.03,11.19-1.28,14.62-2.44"/>
	<path class="st0" d="M614.77,925.39c4.54,1.7,11.74,3.76,20.71,3.66c6.49-0.07,11.91-1.25,15.84-2.44"/>
	<path class="st0" d="M403.99,467.28c18.52,5.61,43.88,11.25,74.32,12.18c27.26,0.84,50.53-2.34,68.23-6.09"/>
	<path class="st0" d="M399.12,478.24c22.45,7.5,56.32,15.58,97.47,13.4c20.67-1.09,38.74-4.54,53.61-8.53"/>
	<path class="st0" d="M363.79,645.16c25.18,7.72,50.36,15.43,75.54,23.15"/>
	<path class="st0" d="M527.05,671.96c11.45-6.88,25.27-14.15,41.42-20.71c15.08-6.13,29.11-10.39,41.42-13.4"/>
	<g>
		<g>
			<path class="st1" d="M357.69,294.27c-16.41,35.79-10.48,54.77-6.09,63.36c23.72,46.47,130.6,37.53,194.94,18.28
				c25.33-7.58,46.09-17.37,61.65-26"/>
			<g>
				<polygon class="st2" points="606.91,359.53 605.91,351.14 599.18,346.04 619.04,343.61 				"/>
			</g>
		</g>
	</g>
</g>
<g id="Camada_2">
</g>
</svg>
