<?xml version="1.0" encoding="utf-8"?>
<!-- Generator: Adobe Illustrator 24.0.1, SVG Export Plug-In . SVG Version: 6.00 Build 0)  -->
<svg version="1.1" xmlns="http://www.w3.org/2000/svg" xmlns:xlink="http://www.w3.org/1999/xlink" x="0px" y="0px"
	 viewBox="0 0 1080 1080" style="enable-background:new 0 0 1080 1080;" xml:space="preserve">
<style type="text/css">
	.st0{display:none;}
	.st1{fill:none;stroke:#FFFFFF;stroke-width:6;stroke-miterlimit:10;}
	.st2{fill:none;stroke:#FF0000;stroke-width:6;stroke-miterlimit:10;}
	.st3{fill:#FF0000;}
	.st4{fill:none;stroke:#000000;stroke-width:6;stroke-miterlimit:10;}
	.st5{fill:none;stroke:#F40000;stroke-width:6;stroke-miterlimit:10;}
	.st6{fill:#F40000;}
	.st7{fill:none;stroke:#000000;stroke-width:6;stroke-linecap:round;stroke-linejoin:round;stroke-miterlimit:10;}
	.st8{fill:none;stroke:#FFFFFF;stroke-width:6;stroke-linecap:round;stroke-linejoin:round;stroke-miterlimit:10;}
	.st9{fill:none;stroke:#000000;stroke-width:6;stroke-linecap:round;stroke-miterlimit:10;}
	.st10{fill:none;stroke:#FFFFFF;stroke-width:6;stroke-linecap:round;stroke-miterlimit:10;}
</style>
<g id="Camada_4" class="st0">
</g>
<g id="_x31_">
	<g id="Camada_3">
	</g>
</g>
<g id="_x32_">
	<path class="st1" d="M622,461c-17.91-8.95-38.36-1.61-54,4c-11.81,4.24-43.83,15.72-47,37c-2.53,17.03,16.29,21.08,27,52
		c10.57,30.52-1.4,44.99,11,56c9.72,8.62,26.81,5.75,61,0c21.37-3.59,32.17-5.54,38-13c5.85-7.49,6.57-17.64-2-53
		C643.87,493.93,637.8,468.89,622,461z"/>
	<path class="st1" d="M536,530c-0.42,4.37-1.7,10.87-6,17c-4.18,5.95-7.86,6.78-9,10c-1.7,4.78,2.54,13.89,30,33"/>
	<path class="st1" d="M521,557c-8.92,4.9-21.78,13.31-34,27c-7.57,8.49-12.32,16.12-14,19c-15.02,25.78-1.3,43.67-2,106
		c-0.26,23.39,5.38,46.61,5,70c-0.04,2.5-0.58,9.86,4,14c1.21,1.09,4.24,3.3,21,2c11.85-0.92,17.78-1.38,20-4
		c4.03-4.77,0.63-10.46,0-28c-0.97-26.8,9.3-29.46,9-52c-0.39-29.47-18.6-40-11-53c5.19-8.87,14.94-6.13,32-17
		c12.89-8.21,21.08-18.54,26-26"/>
	<path class="st1" d="M476,782c15.67,0,31.33,0,47,0"/>
	<path class="st1" d="M523,785c6.23,16.3,18.66,53.52,4,66c-6.87,5.85-12.93,0.51-44,0c-32.88-0.54-46.69,5.1-65-5
		c-3.54-1.95-13.28-7.33-13-14c0.34-7.92,14.61-13.33,19-15c10.65-4.04,13.07-1.35,25-5c8.22-2.51,18.62-5.69,24-15
		c3.9-6.74,3.56-13.94,3-18"/>
	<path class="st1" d="M575,618c13.01,31.12,28.97,51.35,41,64c26.11,27.45,41.49,27.33,61,55c20.77,29.45,6.96,34.7,28,61
		c23.9,29.87,30.27,40.25,43,61c1.05,1.71,2.5,4.15,2,7c-0.9,5.17-7.97,10.36-53,24c-7.72,2.34-14.2,4.21-17,10
		c-2.9,5.99-0.85,14.04,3,19c7.9,10.18,24.42,8.73,40,8c65.34-3.08,79.07,8.15,87-3c6.43-9.05-0.94-18.79-22-76
		c-20.07-54.52-16.65-54.83-27-73c-18.07-31.7-28.54-31.32-46-65c-10.52-20.3-9.56-25.91-22-55c-11.67-27.27-23.66-48.39-32-62"/>
	<path class="st1" d="M750,866c14.67-0.67,29.33-1.33,44-2"/>
	<path class="st1" d="M745,856c14.67-1.33,29.33-2.67,44-4"/>
	<path class="st1" d="M628,465c-14.4-47.04-33.3-82.4-48-106c-25.18-40.43-57.62-92.5-97-91c-18.15,0.69-17.82,12-48,20
		c-43,11.4-76.06-2.96-80,7c-2.6,6.58,12.31,11.59,21,34c7.23,18.63,1.8,27.75,10,35c10.26,9.07,22.74-1.66,38,4
		c21,7.79,21.06,36.93,36,67c8.77,17.65,25.72,41.77,62,64"/>
	<path class="st1" d="M471,392c7.85,5.77,19.01,15.39,29,30c10.61,15.51,15.56,30.3,18,40"/>
	<path class="st1" d="M356,300c-14.7,5.22-18.7,2.52-20,1c-2.62-3.07-0.15-8.17,9-31c9.51-23.72,9.32-24.4,12-28
		c10.61-14.22,20.68-13.11,23-23c2.45-10.43-5.81-24.23-14-25c-5.24-0.49-9.22,4.46-24,26c-16.34,23.81-24.51,35.72-29,44
		c-10.28,18.96-15.8,33.79-19,49c-2.29,10.87-1.6,13.44-1,15c5,13.01,26.14,12.84,59,23c14.49,4.48,26.1,9.37,34,13"/>
	<path class="st1" d="M359,239c0.12,6.01,1.2,18.66,9,32c6.98,11.93,16.03,18.77,21,22"/>
	<path class="st1" d="M378,204c5.47-3.41,18.28-10.25,35-9c18.55,1.39,38.87,12.51,45,29c2.59,6.97,0.62,9.46,4,21
		c3.29,11.24,8.32,19.68,12,25"/>
	<path class="st1" d="M374,260c-9.15,0.59-10.96,0.33-11,0c-0.12-0.88,11.83-5.58,25-3c10.9,2.13,17.86,8.32,22,12
		c8.24,7.33,12.67,15.52,15,21"/>
	<path class="st1" d="M714,344c-1.67,93.33-3.33,186.67-5,280"/>
	<path class="st1" d="M707,624c43.33,5.33,86.67,10.67,130,16"/>
	<path class="st1" d="M685,638c8-4.67,16-9.33,24-14"/>
	<path class="st1" d="M612,681c-29,18.33-58,36.67-87,55"/>
	<path class="st1" d="M475,763c-40,25.67-80,51.33-120,77"/>
	<g>
		<g>
			<path class="st2" d="M445,575c-20.91-58.85-41.82-117.7-62.73-176.55"/>
			<g>
				<polygon class="st3" points="391.58,401.41 383.14,400.9 376.92,406.61 378.08,386.64 				"/>
			</g>
		</g>
	</g>
</g>
<g id="Camada_5">
</g>
<g id="Camada_6">
</g>
<g id="Camada_7">
</g>
<g id="Camada_8">
</g>
</svg>
