<?xml version="1.0" encoding="utf-8"?>
<!-- Generator: Adobe Illustrator 24.0.1, SVG Export Plug-In . SVG Version: 6.00 Build 0)  -->
<svg version="1.1" id="Camada_1" xmlns="http://www.w3.org/2000/svg" xmlns:xlink="http://www.w3.org/1999/xlink" x="0px" y="0px"
	 viewBox="0 0 1080 1080" style="enable-background:new 0 0 1080 1080;" xml:space="preserve">
<style type="text/css">
	.st0{fill-rule:evenodd;clip-rule:evenodd;}
</style>
<g>
	<path class="st0" d="M630.92,821.53c-1.26,0-2.5-0.42-3.6-1.23l-26.04-26.66l182.24-181.57c0.03-0.03,0.07-0.07,0.09-0.11
		c2.24-2.99,2.24-7.34,0-10.35c-0.03-0.04-0.06-0.08-0.1-0.11L601.28,419.93l26.09-26.72c1.09-1.08,2.32-1.66,3.54-1.66
		s2.45,0.58,3.54,1.67l210.29,209.65c1.66,2.26,1.66,5.6,0,7.84L634.51,820.3C633.42,821.11,632.18,821.53,630.92,821.53z"/>
	<path d="M630.92,392.55c1.21,0,2.21,0.75,2.84,1.37l210.24,209.6c1.35,1.9,1.36,4.66,0,6.53L633.86,819.54
		c-0.91,0.65-1.92,0.99-2.94,0.99c-1.02,0-2.03-0.34-2.95-0.99l-25.28-25.89l181.53-180.87c0.07-0.07,0.13-0.14,0.19-0.22
		c2.49-3.33,2.5-8.19,0-11.54c-0.06-0.08-0.12-0.15-0.19-0.22L602.69,419.92l25.38-25.99C628.7,393.3,629.71,392.55,630.92,392.55
		 M630.92,390.55c-1.47,0-2.95,0.65-4.26,1.96l-26.78,27.43l182.94,182.27c1.95,2.63,1.95,6.54,0,9.15L599.87,793.63l26.78,27.43
		c1.32,0.98,2.79,1.47,4.26,1.47c1.47,0,2.94-0.49,4.25-1.47l210.34-209.7c1.98-2.61,1.98-6.52,0-9.15l-210.34-209.7
		C633.86,391.2,632.39,390.55,630.92,390.55L630.92,390.55z"/>
</g>
<g>
	<path d="M284.36,627.44c-5.61,0-10.18-4.57-10.18-10.18v-20.88c0-5.61,4.57-10.18,10.18-10.18H823c5.61,0,10.18,4.57,10.18,10.18
		v20.88c0,5.61-4.57,10.18-10.18,10.18H284.36z"/>
	<path d="M823,586.7c5.34,0,9.68,4.34,9.68,9.68v20.88c0,5.34-4.34,9.68-9.68,9.68H284.36c-5.34,0-9.68-4.34-9.68-9.68v-20.88
		c0-5.34,4.34-9.68,9.68-9.68H823 M823,585.7H284.36c-5.9,0-10.68,4.78-10.68,10.68v20.88c0,5.9,4.78,10.68,10.68,10.68H823
		c5.9,0,10.68-4.78,10.68-10.68v-20.88C833.68,590.48,828.9,585.7,823,585.7L823,585.7z"/>
</g>
</svg>
