<?xml version="1.0" encoding="utf-8"?>
<!-- Generator: Adobe Illustrator 24.0.1, SVG Export Plug-In . SVG Version: 6.00 Build 0)  -->
<svg version="1.1" id="Camada_1" xmlns="http://www.w3.org/2000/svg" xmlns:xlink="http://www.w3.org/1999/xlink" x="0px" y="0px"
	 viewBox="0 0 1080 1080" style="enable-background:new 0 0 1080 1080;" xml:space="preserve">
<style type="text/css">
	.st0{fill:#FFFFFF;}
</style>
<path id="XMLID_35837_" class="st0" d="M391.91,871.8h369.03c45.92,0,83.27-37.35,83.27-83.27V606.3l12.45,12.45
	c10.45,10.47,27.41,10.45,37.86,0.02l33.03-33.01l0.02-0.02c33.9-33.94,33.9-89.16,0-123.11L672.96,208.04
	c-0.58-0.74-1.22-1.43-1.89-2.11l-33.01-33.01c-16.47-16.43-38.37-25.47-61.65-25.47c-23.3,0-45.2,9.04-61.65,25.49l-32.99,33.01
	c-0.6,0.62-1.19,1.26-1.74,1.94L225.26,462.62c-33.92,33.96-33.92,89.17-0.02,123.11l33.03,33.01c5.23,5.24,12.07,7.85,18.94,7.85
	c6.83,0,13.7-2.6,18.94-7.85l12.45-12.47v182.25C308.6,834.45,346,871.8,391.91,871.8z"/>
<rect id="XMLID_35836_" x="511.31" y="611.5" class="st0" width="130.18" height="167.39"/>
<path id="XMLID_35835_" class="st0" d="M790.63,788.53c0,16.37-13.34,29.69-29.69,29.69h-68.97c1.98-3.75,3.1-8.02,3.1-12.56V584.73
	c0-14.79-11.98-26.79-26.77-26.79H484.52c-14.77,0-26.79,12-26.79,26.79v220.92c0,4.55,1.13,8.81,3.11,12.56h-68.93
	c-16.39,0-29.73-13.32-29.73-29.69V552.72l214.23-214.23L713.19,475.3l0,0l77.44,77.42V788.53z"/>
<path id="XMLID_35834_" class="st0" d="M277.21,561.93l-14.07-14.07c-13.05-13.04-13.05-34.3,0-47.33l256.58-256.6
	c0.64-0.6,1.21-1.26,1.77-1.92l31.17-31.18c12.62-12.64,34.84-12.64,47.52,0.02l31.03,30.99c0.58,0.73,1.21,1.43,1.87,2.09
	l256.6,256.58c13.06,13.05,13.06,34.3,0,47.37l-14.07,14.07L595.35,281.67c-5.04-5.01-11.83-7.85-18.94-7.85
	c-7.11,0-13.92,2.83-18.94,7.85L277.21,561.93z"/>
</svg>
