<?xml version="1.0" encoding="utf-8"?>
<!-- Generator: Adobe Illustrator 24.0.1, SVG Export Plug-In . SVG Version: 6.00 Build 0)  -->
<svg version="1.1" xmlns="http://www.w3.org/2000/svg" xmlns:xlink="http://www.w3.org/1999/xlink" x="0px" y="0px"
	 viewBox="0 0 1080 1080" style="enable-background:new 0 0 1080 1080;" xml:space="preserve">
<style type="text/css">
	.st0{display:none;}
	.st1{fill:none;stroke:#FFFFFF;stroke-width:6;stroke-miterlimit:10;}
	.st2{fill:none;stroke:#FF0000;stroke-width:6;stroke-miterlimit:10;}
	.st3{fill:#FF0000;}
	.st4{fill:none;stroke:#000000;stroke-width:6;stroke-miterlimit:10;}
	.st5{fill:none;stroke:#F40000;stroke-width:6;stroke-miterlimit:10;}
	.st6{fill:#F40000;}
	.st7{fill:none;stroke:#000000;stroke-width:6;stroke-linecap:round;stroke-linejoin:round;stroke-miterlimit:10;}
	.st8{fill:none;stroke:#FFFFFF;stroke-width:6;stroke-linecap:round;stroke-linejoin:round;stroke-miterlimit:10;}
	.st9{fill:none;stroke:#000000;stroke-width:6;stroke-linecap:round;stroke-miterlimit:10;}
	.st10{fill:none;stroke:#FFFFFF;stroke-width:6;stroke-linecap:round;stroke-miterlimit:10;}
</style>
<g id="Camada_4" class="st0">
</g>
<g id="_x31_">
	<g id="Camada_3">
	</g>
</g>
<g id="_x32_">
	<path class="st1" d="M524,476c7.08-1.11,9.57,4.01,26,10c13.39,4.88,16.75,3.3,23,6c18.19,7.86,30.66,38.96,24,59
		c-9.99,30.05-64.77,40.51-105,36c-75.16-8.42-122.41-71.63-137-59c-4.49,3.89,1,9.01,1,32c0.01,45.18-21.19,60.39-25,97
		c-0.26,2.46-0.64,7-4,10c-9.85,8.8-37-3-37-3c0,0,6.12-35.07,6-69c-0.12-33.16-6.08-31.48-4-53c1.35-13.99,4.58-47.49,28-64
		c12.81-9.03,32.21-8.02,71-6c33.11,1.73,49.66,2.59,67,10c20.37,8.71,30.91,19.84,43,15C512.78,492.28,512.51,477.81,524,476z"/>
	<path class="st1" d="M598,544c13.03,4.9,30.95,13.65,47,30c21.65,22.06,20.14,37.82,37,45c20.31,8.65,30.53-10.8,69-13
		c37.7-2.15,38.52,15.92,74,12c28.17-3.12,42.25-16.13,66-8c5.47,1.87,15.64,5.35,19,14c2.75,7.08-0.33,14.37-19,45
		c-12.2,20.02-18.38,30.09-22,33c-21.91,17.61-57.06,17.1-62,7c-2.35-4.8,2.15-11.75,3-13c5.1-7.49,12.38-6.26,24-16
		c6.02-5.04,6.77-7.64,7-9c0.94-5.5-3.53-10.82-7-15c-3.62-4.36-9-9-9-9l0,0c0,0,6.87-10.79,21-33"/>
	<path class="st1" d="M836,659c9.33-16.67,18.67-33.33,28-50"/>
	<path class="st1" d="M825,647c-17.22-0.73-42.8-0.51-73,5c-35.8,6.53-55.08,16.28-69,20c-31.3,8.37-81.74-1.37-165-84"/>
	<path class="st1" d="M331,660c1.01,31.17,4.67,38.49,8,39c9.2,1.4,26.38-47.73,33-91c4.78-31.23,3.79-57.72,2-76"/>
	<path class="st1" d="M339,699c1.03,16.15-0.27,35.31-12,43c-9.07,5.95-16.64-0.04-41-2c-38.77-3.11-55.68,9.17-68-3
		c-5.72-5.65-9.26-15.39-6-21c5.96-10.25,29.57,2.02,50-8c9.61-4.72,21.23-15.7,28-44"/>
	<path class="st1" d="M284,683c16.33,0,32.67,0,49,0"/>
	<path class="st1" d="M524,476c-33.61-24.5-64.81-36.15-85-42c-27.27-7.9-62.94-17.73-101-4c-13.32,4.81-31.33,11.62-40,30
		c-9.7,20.57-1.22,41.85,1,47"/>
	<path class="st1" d="M456,440c-4.67,12.33-9.33,24.67-14,37"/>
	<path class="st1" d="M325,435c14.58-1.53,28.43,4.08,36,15c5.74,8.28,6.1,17.07,6,21"/>
	<path class="st1" d="M599,653c15.33-26.33,30.67-52.67,46-79"/>
	<path class="st1" d="M438,476c0.67,8.64,0.62,20.03-2,33c-4.31,21.32-13.56,36.92-20,46"/>
	<path class="st1" d="M326,433c1.64-14.79-1.48-20.59-5-23c-6.88-4.71-15.7,3.25-26-2c-7.82-3.98-5.64-10.05-13-14
		c-11.04-5.93-20.23,5.41-33,1c-13.34-4.61-14.73-20.94-20-20c-6.13,1.09-9.8,24.17-4,45c4.58,16.43,16.29,35.9,27,35
		c5.48-0.46,6.41-5.9,17-9c8.08-2.36,14.58-1.26,16-1c7.43,1.37,12.55,5,15,7"/>
	<path class="st1" d="M224,378c0.58-3.43,4.83-26.56,24-36c12.17-6,24.87-3.77,35-2c9.4,1.64,17.45,3.05,25,9
		c13.91,10.96,16,29.36,18,47c1.41,12.42,0.81,22.84,0,30"/>
	<path class="st1" d="M312,350c3.35-2.26,13.55-8.47,27-7c11.03,1.21,25.09,7.68,29,19c2.73,7.91-2.29,10.09,0,22
		c0.56,2.91,2.8,14.54,12,22c7.82,6.34,16.13,5.99,16,8c-0.17,2.67-14.9,3.66-20,4c-15.94,1.07-24.07,1.51-32-3
		c-3.13-1.78-10.6-6.03-13-14c-3.13-10.41,5.41-17.19,2-26c-1.41-3.64-4.94-7.87-14-11"/>
	<g>
		<g>
			<path class="st2" d="M792.48,594.95c-15.59,2.39-63.35,7.64-112.48-19.95c-27.69-15.55-45.54-35.76-56.09-50.54"/>
			<g>
				<polygon class="st3" points="633.73,524.98 625.43,526.57 620.81,533.64 617,514 				"/>
			</g>
		</g>
	</g>
	<g>
		<g>
			<path class="st2" d="M437,453c-46.71-27.39-106.37-18.88-143,20c-32.62,34.62-40.24,86.16-19.97,128.97"/>
			<g>
				<polygon class="st3" points="264.49,600.36 272.91,599.63 278.23,593.07 280,613 				"/>
			</g>
		</g>
	</g>
</g>
<g id="Camada_5">
</g>
<g id="Camada_6">
</g>
<g id="Camada_7">
</g>
<g id="Camada_8">
</g>
<g id="Camada_9">
</g>
</svg>
