<?xml version="1.0" encoding="utf-8"?>
<!-- Generator: Adobe Illustrator 24.0.1, SVG Export Plug-In . SVG Version: 6.00 Build 0)  -->
<svg version="1.1" id="Camada_1" xmlns="http://www.w3.org/2000/svg" xmlns:xlink="http://www.w3.org/1999/xlink" x="0px" y="0px"
	 viewBox="0 0 1080 1080" style="enable-background:new 0 0 1080 1080;" xml:space="preserve">
<style type="text/css">
	.st0{fill:#FFFFFF;}
</style>
<path id="XMLID_36597_" class="st0" d="M613.5,891.35h0.04c3.08,0,6.11-1.16,8.45-3.36l132.03-124.48c2.48-2.35,3.73-5.57,3.76-8.88
	c1.3-2.17,2.1-4.7,2.1-7.42V286.13c0-28.74-23.37-52.13-52.11-52.13H268.2c-28.74,0-52.12,23.39-52.12,52.13v556.5
	c0,28.75,23.38,52.13,52.12,52.13h336.07C607.8,894.77,610.99,893.45,613.5,891.35z"/>
<path id="XMLID_36596_" class="st0" d="M625.86,850.5v-47.84c0-19.73,16.06-35.79,35.79-35.79h52.9L625.86,850.5z"/>
<path id="XMLID_36595_" class="st0" d="M589.8,865.83H268.2c-12.79,0-23.2-10.4-23.2-23.2v-556.5c0-12.78,10.41-23.2,23.2-23.2
	h439.58c12.79,0,23.19,10.41,23.19,23.2v446.62H663.4c-40.58,0-73.61,33.02-73.61,73.6V865.83z"/>
<path id="XMLID_36593_" d="M336.68,426.32h318.6c8,0,14.47-6.48,14.47-14.47v-25.92c0-7.99-6.47-14.47-14.47-14.47h-318.6
	c-7.99,0-14.47,6.48-14.47,14.47v25.92C322.21,419.84,328.69,426.32,336.68,426.32z"/>
<rect id="XMLID_36592_" x="339.58" y="388.82" width="312.8" height="20.13"/>
<path id="XMLID_36590_" d="M336.68,516.99h318.6c8,0,14.47-6.47,14.47-14.47v-25.91c0-8-6.47-14.48-14.47-14.48h-318.6
	c-7.99,0-14.47,6.48-14.47,14.48v25.91C322.21,510.52,328.69,516.99,336.68,516.99z"/>
<rect id="XMLID_36589_" x="339.58" y="479.5" width="312.8" height="20.13"/>
<path id="XMLID_36587_" d="M669.74,593.21V567.3c0-7.99-6.47-14.47-14.47-14.47h-318.6c-7.99,0-14.47,6.48-14.47,14.47v25.92
	c0,7.99,6.48,14.47,14.47,14.47h318.6C663.27,607.68,669.74,601.2,669.74,593.21z"/>
<rect id="XMLID_36586_" x="339.58" y="570.19" width="312.8" height="20.13"/>
</svg>
