<?xml version="1.0" encoding="utf-8"?>
<!-- Generator: Adobe Illustrator 24.0.1, SVG Export Plug-In . SVG Version: 6.00 Build 0)  -->
<svg version="1.1" xmlns="http://www.w3.org/2000/svg" xmlns:xlink="http://www.w3.org/1999/xlink" x="0px" y="0px"
	 viewBox="0 0 1080 1080" style="enable-background:new 0 0 1080 1080;" xml:space="preserve">
<style type="text/css">
	.st0{fill:none;stroke:#FFFFFF;stroke-width:6;stroke-miterlimit:10;}
	.st1{fill:none;stroke:#FF0000;stroke-width:6;stroke-miterlimit:10;}
	.st2{fill:#FF0000;}
	.st3{fill:none;stroke:#000000;stroke-width:6;stroke-miterlimit:10;}
	.st4{fill:none;stroke:#F40000;stroke-width:6;stroke-miterlimit:10;}
	.st5{fill:#F40000;}
	.st6{fill:none;stroke:#000000;stroke-width:6;stroke-linecap:round;stroke-linejoin:round;stroke-miterlimit:10;}
	.st7{fill:none;stroke:#FFFFFF;stroke-width:6;stroke-linecap:round;stroke-linejoin:round;stroke-miterlimit:10;}
</style>
<g id="_x31_">
	<g id="Camada_3">
	</g>
</g>
<g id="_x32_">
	<path class="st0" d="M474.79,461.81c-4.87,17.03-11.47,33.99-19.01,50.01c-8.48,18.84-17.9,37.68-19.78,58.41
		c-0.94,20.73,2.83,42.39,0.94,63.12c-2.83,21.67-2.83,42.39-7.54,65c0,0.94-1.88,1.88-1.88,2.83
		c-5.65,22.61-27.32,33.91-37.68,53.7c-19.78,37.68-10.36,79.13-16.01,119.64c-2.83,19.78-9.42,36.74-19.78,53.7
		c-8.48,12.25-18.84,20.73-27.32,32.03c-7.54,8.48-3.77,20.73,5.65,25.44c12.25,6.59,26.38,4.71,39.57,4.71
		c23.55-10.36,32.97-38.62,28.26-64.06c-2.83-13.19-1.88-25.44,0.94-38.62c3.77-18.84,10.36-34.86,21.67-50.87
		c9.42-12.25,15.07-25.44,20.73-38.62c4.71-12.25,3.77-26.38,7.54-38.62c5.65-15.07,13.19-27.32,23.55-39.57
		c4.71-7.54,9.42-14.13,14.13-21.67c17.9-32.97,27.32-66.89,38.62-101.74c2.83-10.36,4.71-19.78,8.48-30.15
		c0.94-1.88,2.83-3.77,5.65-3.77c8.48-0.94,15.07,4.71,18.84,12.25c5.65,13.19,8.48,27.32,12.25,41.45
		c6.59,19.78,14.13,38.62,21.67,58.41c5.65,13.19,11.3,24.49,19.78,36.74c1.88,2.83,2.83,6.59,5.65,10.36
		c2.83,2.83,4.71,5.65,6.59,9.42c0.94,0.94,1.88,1.88,2.83,2.83c3.77,5.65,5.65,11.3,6.59,17.9c0.94,16.96-2.83,33.91,3.77,49.93
		c2.83,6.59,8.48,11.3,13.19,16.96c1.88,1.88,2.83,4.71,3.77,6.59c0.94,0.94,1.88,1.88,2.83,2.83
		c16.96,26.38,22.61,59.35,5.65,86.67c-9.42,15.07,3.77,29.2,16.01,38.62c16.01,11.3,32.97,16.96,52.75,21.67
		c4.71,0.94,9.42,0,14.13-1.88c7.54-3.77,11.3-11.3,9.42-19.78c-2.83-12.25-17.9-12.25-27.32-18.84
		c-8.48-5.65-15.07-12.25-19.78-21.67c-0.94-1.88-0.94-4.71-2.83-6.59c-1.88-4.71-1.88-9.42-1.88-14.13
		c-0.94-22.61,0.94-44.28,0-66.89c-0.94-10.36-2.83-20.73-6.59-31.09c-4.71-11.3-13.19-20.73-17.9-32.03
		c-3.77-11.3-5.65-23.55-6.59-35.8c0-30.15,2.83-60.29-4.71-90.44c-0.94-3.77-1.88-7.54-1.88-11.3c0-0.94-1.88-1.88-1.88-2.83
		c-5.58-25.09-12.7-48.63-22.13-71.77c-1.49-3.65-2.98-6.93-10.84-24.31c-11.04-24.41-20.11-44.31-26.29-57.84"/>
	<path class="st0" d="M371.39,885.12c3.99,1.52,9.91,3.22,17.22,3.44c4.99,0.15,9.29-0.43,12.63-1.15"/>
	<path class="st0" d="M366.8,904.63c4.11,1.48,10,3.09,17.22,3.44c5.98,0.3,11.08-0.36,14.92-1.15"/>
	<path class="st0" d="M674.41,880.53c3.55,1.49,9.57,3.48,17.22,3.44c5.8-0.03,10.54-1.21,13.77-2.3"/>
	<path class="st0" d="M672.11,898.89c4.28,1.6,11.06,3.54,19.51,3.44c6.12-0.07,11.22-1.18,14.92-2.3"/>
	<path class="st0" d="M473.54,467.33c17.45,5.28,41.34,10.6,70.01,11.48c25.68,0.79,47.6-2.21,64.28-5.74"/>
	<path class="st0" d="M435.67,634.9c23.72,7.27,47.44,14.54,71.16,21.81"/>
	<path class="st0" d="M589.47,660.15c10.78-6.48,23.81-13.33,39.02-19.51c14.21-5.77,27.43-9.79,39.02-12.63"/>
	<path class="st0" d="M468.95,477.66c21.15,7.07,53.06,14.68,91.82,12.63c19.47-1.03,36.5-4.28,50.5-8.03"/>
	<path class="st0" d="M473.59,465.62c3.72-13.28,7.76-32.54,8-56c0.06-6.01-0.04-24.25-5-48c-7.05-33.77-15.1-36.33-19-57
		c-4.71-24.96,4.52-47.98,23-94c16.58-41.3,34.68-72.32,38-71c2.15,0.85-4.97,14.67-2,36c1.86,13.33,5.45,13.81,5,23
		c-0.89,18.03-15.45,30.63-12,34c0.64,0.62,4.09,0.75,11,1c1.63,0.06,2.44,0.03,2.87-0.01c1.67-0.15,2.21-0.48,3.13,0.01
		c4.14,2.2-0.34,12.2,3,22c2.79,8.17,9.81,12.61,12,14c12.37,7.83,30.72,6.19,42-4c8.65-7.81,13.4-20.88,12-28
		c-0.09-0.44-0.39-1.82,0-2c1.16-0.54,6.78,10.7,14,22c9.45,14.79,11.94,14.48,22,30c8.18,12.61,12.26,19.06,12,26
		c-0.45,12.11-9.86,22.74-11,24c-4.35,4.81-7.98,6.51-12,13c0,0-3.19,5.16-5,12c-2.92,11.07-6.6,50.83-9,105"/>
	<path class="st0" d="M456.59,291.62c6.7-0.87,19.55-3.51,32-13c21.49-16.38,25.29-40.62,26-46"/>
	<path class="st0" d="M515.59,160.62c7.48-0.26,16.84-1.44,27-5c16.04-5.62,21.43-12.76,32-11c6.97,1.16,13.78,5.79,17,12
		c1.42,2.74,1.78,5.09,1,21c-0.66,13.55-1.01,20.4-2,24c-1.9,6.95-4.27,15.58-12,22c-14.29,11.86-33.91,5.38-35,5
		c-2.74-0.95-8.76-3.13-14-9c-6.99-7.84-7.85-16.93-8-20"/>
	<path class="st0" d="M536.59,225.62c-0.24,0.93-1.13,3.87-4,6c-1.98,1.47-3.98,1.87-5,2"/>
	<path class="st7" d="M595.59,235.62c-0.54,0.07-6.66,0.78-11-4c-4.2-4.63-3.12-10.41-3-11"/>
	<path class="st0" d="M518.59,139.62c1.16-3.29,3.24-8.05,7-13c2.27-2.98,5.89-7.66,12-11c5.46-2.99,10.19-3.43,17-4
		c11.22-0.93,19.31-1.61,28,3c2.24,1.19,9.77,5.31,14,14c2.24,4.6,2.75,8.84,3,11c0.64,5.68-0.19,10-1,14
		c-0.85,4.22-2.51,10.23-6,17"/>
	<path class="st0" d="M594.59,125.62c11,11.83,14.69,22.42,16,30c1.52,8.83-0.23,13.36,1,23c1.69,13.2,7.37,23.37,12,30"/>
	<path class="st0" d="M591.59,190.62c2.52,4.38,6.62,10.31,13,16c4.68,4.17,9.27,7.04,13,9"/>
	<path class="st0" d="M573.59,111.62c28.03,14.71,48.67,25.45,60,31c8.58,4.2,15.81,11.39,25,14c1.43,0.41,4.96,1.32,6,4
		c1.34,3.44-2.17,7.78-4,10c-10.72,12.98-16.09,19.47-21,23c-9.76,7-23.66,19.15-44,42"/>
	<path class="st0" d="M631.59,287.62c12.76-30.03,27.15-51.18,38-65c8.65-11.01,38.17-46.84,39-70c0.09-2.38,0.22-8.18-3-14
		c-3.87-6.99-10.54-10.35-17-13c-21.54-8.83-42.82-10.61-48-11c-16.85-1.26-24.39,0.2-32-6c-2.79-2.27-5.15-5.22-11-9
		c-2.95-1.91-7.96-5.09-15-7c-10.97-2.98-20.14-1.07-25,0c-6.48,1.43-11.81,2.6-17,7c-7.32,6.2-9.37,14.58-10,18"/>
	<g>
		<g>
			<path class="st1" d="M412.59,328.62c-6.29-7.37-65.05-77.7-58-141c0.99-8.86,2.97-26.69,15-45c12.41-18.89,28.7-27.91,40-34
				c33.08-17.82,66.9-20.02,89.5-18.97"/>
			<g>
				<polygon class="st2" points="492.67,97.13 496.5,89.59 493.73,81.61 511.59,90.62 				"/>
			</g>
		</g>
	</g>
	<path class="st0" d="M476.59,361.62c46.33,0.33,92.67,0.67,139,1"/>
	<path class="st0" d="M605.59,139.62c10.92,7.21,17.3,14.71,21,20c2.81,4.01,5.46,8.71,9,15c3.47,6.16,6.17,11.36,8,15"/>
</g>
</svg>
