<?xml version="1.0" encoding="utf-8"?>
<!-- Generator: Adobe Illustrator 24.0.1, SVG Export Plug-In . SVG Version: 6.00 Build 0)  -->
<svg version="1.1" xmlns="http://www.w3.org/2000/svg" xmlns:xlink="http://www.w3.org/1999/xlink" x="0px" y="0px"
	 viewBox="0 0 1080 1080" style="enable-background:new 0 0 1080 1080;" xml:space="preserve">
<style type="text/css">
	.st0{display:none;}
	.st1{fill:none;stroke:#FFFFFF;stroke-width:6;stroke-miterlimit:10;}
	.st2{fill:none;stroke:#FF0000;stroke-width:6;stroke-miterlimit:10;}
	.st3{fill:#FF0000;}
	.st4{fill:none;stroke:#000000;stroke-width:6;stroke-miterlimit:10;}
	.st5{fill:none;stroke:#F40000;stroke-width:6;stroke-miterlimit:10;}
	.st6{fill:#F40000;}
	.st7{fill:none;stroke:#000000;stroke-width:6;stroke-linecap:round;stroke-linejoin:round;stroke-miterlimit:10;}
	.st8{fill:none;stroke:#FFFFFF;stroke-width:6;stroke-linecap:round;stroke-linejoin:round;stroke-miterlimit:10;}
	.st9{fill:none;stroke:#000000;stroke-width:6;stroke-linecap:round;stroke-miterlimit:10;}
	.st10{fill:none;stroke:#FFFFFF;stroke-width:6;stroke-linecap:round;stroke-miterlimit:10;}
</style>
<g id="Camada_4" class="st0">
</g>
<g id="_x31_">
	<g id="Camada_3">
	</g>
</g>
<g id="_x32_">
	<path class="st1" d="M414.29,295.06c7.66,5.55,26.04,17.21,45,12c8.32-2.28,13.66-7.12,21-14c18.75-17.57,28.13-26.36,43-43
		c8.14-9.12,33.96-37.54,73-58c7.54-3.95,23.36-9.63,55-21c25.75-9.25,34.49-11.67,45-9c3.2,0.81,11.15,3.26,23,5
		c3.09,0.45,18.21,2.67,19,0c0.84-2.83-15.63-7.03-16-15c-0.15-3.13,2.28-5.85,9-11c17.31-13.26,29.49-16.8,29-19
		c-0.58-2.6-18.69-2.39-39,3c-17.14,4.54-29.08,11.04-31,12c-57.22,28.6-101.49,20.41-166,57c-5.84,3.31-35.95,20.67-68,52
		C439.12,262.85,428.26,276.94,414.29,295.06c-21.19,27.49-38,49.3-53,81c-15.12,31.96-10.46,36.05-25,60
		c-16.99,27.99-22.48,20.96-43,52c0,0-27.74,41.97-32,86c-0.36,3.72-0.39,7.27-0.39,7.27c0.01,4.55,0.63,7.26,0.39,21.73
		c-0.54,32.84-6.29,58.7-10,75c-5.49,24.1-6.79,20.1-11.73,41.66c-9.09,39.65-9.09,71.18-16.01,119.64
		c-2.83,19.78-9.42,36.74-19.78,53.7c-8.48,12.25-18.84,20.73-27.32,32.03c-7.54,8.48-3.77,20.73,5.65,25.44
		c12.25,6.59,26.38,4.71,39.57,4.71c23.55-10.36,32.97-38.62,28.26-64.06c-2.83-13.19-1.88-25.44,0.94-38.62
		c1.56-7.27,4.31-15.04,9.09-28.99c3.76-10.96,6.72-18.85,7.33-20.5c13.35-36.07,6.53-68.27,23-100c9.56-18.43,13.82-11.32,32-36
		c38.01-51.59,35.29-104.16,54.81-105.61c2.87-0.21,5.69,1.39,11.19,4.61c30.32,17.73,35.95,45.95,55.7,73.58
		c26.26,36.76,40.04,23.45,48.3,47.42c10.53,30.53-9.58,58.64,10.1,96.72c1.48,2.85,2.84,5.12,3.77,6.59
		c0.94,0.94,1.88,1.88,2.83,2.83c16.96,26.38,22.61,59.35,5.65,86.67c-9.42,15.07,3.77,29.2,16.01,38.62
		c16.01,11.3,32.97,16.96,52.75,21.67c4.71,0.94,9.42,0,14.13-1.88c7.54-3.77,11.3-11.3,9.42-19.78
		c-2.83-12.25-17.9-12.25-27.32-18.84c-8.48-5.65-15.07-12.25-19.78-21.67c-0.94-1.88-0.94-4.71-2.83-6.59
		c-1.88-4.71-1.88-9.42-1.88-14.13c-0.94-22.61,0.94-44.28,0-66.89c-0.44-10.59-2.06-8.65-6.59-31.09
		c-6.23-30.83-4.2-34.39-9.26-65.22c-7.11-43.31-16.4-68.54-19.94-93.04c-0.07-0.5-0.18-1.29-0.38-2.31
		c-0.23-1.11-0.6-2.8-1.17-4.83c-4.04-14.43-10.77-20.86-22.51-36.81c-14.26-19.38-14.9-24.27-24-29c-5.6-2.91-7.73-2.29-15-5
		c-12.74-4.75-22.19-12.6-29-20"/>
	<path class="st1" d="M221.11,849.97c3.99,1.52,9.91,3.22,17.22,3.44c4.99,0.15,9.29-0.43,12.63-1.15"/>
	<path class="st1" d="M216.52,869.48c4.11,1.48,10,3.09,17.22,3.44c5.98,0.3,11.08-0.36,14.92-1.15"/>
	<path class="st1" d="M524.12,845.38c3.55,1.49,9.57,3.48,17.22,3.44c5.8-0.03,10.54-1.21,13.77-2.3"/>
	<path class="st1" d="M521.83,863.74c4.28,1.6,11.06,3.54,19.51,3.44c6.12-0.07,11.22-1.18,14.92-2.3"/>
	<path class="st1" d="M333.29,444.06c13.97,9.52,30.3,19.48,49,29c17.08,8.69,33.26,15.55,48,21"/>
	<path class="st1" d="M261.29,600.06c28,8.33,56,16.67,84,25"/>
	<path class="st1" d="M435.29,626.06c12.1-6.91,26.43-14.08,42.92-20.56c14.01-5.51,27.16-9.59,39.02-12.63"/>
	<path class="st1" d="M326.29,454.06c10.14,8.79,23.73,18.92,41,28c23.01,12.1,44.28,17.98,60,21"/>
	<path class="st1" d="M427.29,503.06c1.21-5.57,3.46-11.46,8-13c7.14-2.43,14.96,7.59,19,5c4.38-2.81-1.28-17.01,1-18
		c3.14-1.36,11.1,26.7,29,31c5.37,1.29,6.88-0.7,31-9c24.74-8.52,30.12-8.82,32-14c2.53-6.98-5.45-11.36-14-29
		c-11.78-24.3-6.62-36.53-16-41c-7.77-3.7-17.88,1.55-36,11c-9.28,4.84-13.92,7.26-18,12c-11.69,13.56-9.12,32.72-8,39"/>
	<path class="st1" d="M475.29,529.06c16.61,1.19,30.84,0.35,42-1c13.48-1.63,23.3-2.89,35-8c9.94-4.34,26.89-11.74,33-26
		c5.64-13.16-1.26-24.44-16-58c-20.9-47.58-30.9-79.23-35-78c-2.64,0.79,2.61,13.55-3,29c-4.82,13.29-15.35,22.15-25,28"/>
	<path class="st1" d="M489.29,287.06c5.68,3.34,12.28,8.32,12,14c-0.35,7.16-11.26,8.26-17,19c-4.48,8.39-4.65,20.51,1,29
		c8.76,13.17,27.95,12.28,34,12c6.47-0.3,11.67-1.8,15-3"/>
	<path class="st1" d="M367.29,365.06c35.67,21.67,71.33,43.33,107,65"/>
	<path class="st1" d="M503.29,300.06c2.42,3.68,6.51,8.86,13,13c6.51,4.16,11.02,4.45,12,8c1.43,5.17-6.95,8.71-8,16
		c-0.69,4.8,1.75,11.61,14,21"/>
	<path class="st10" d="M502,290c1,3.33,2,6.67,3,10c1.12,1.71,2.82,3.93,5.29,6.06c15.98,13.72,49.55,10.57,67-9
		c2.12-2.38,16.98-19.56,11-36c-5.89-16.18-30.21-26.88-58-19"/>
	<path class="st1" d="M580.29,294.06c21.04-20.81,22.31-49.73,9-64c-11.57-12.41-31.01-10.36-34-10"/>
	<path class="st1" d="M562.29,308.06c0.86,3.44,6.2,26.21-8,44c-4.9,6.15-10.64,9.83-15,12"/>
	<path class="st1" d="M511.29,263.06c-2.35,3.82-5.1,9.2-7,16c-2.65,9.48-2.52,17.69-2,23"/>
	<g>
		<g>
			<path class="st2" d="M252.29,491.06c-9.31-27.87-22.1-78.81-13-141c4.71-32.19,16.74-114.39,88-170
				c71.85-56.07,156.72-48.27,189.72-42.5"/>
			<g>
				<polygon class="st3" points="509.7,144.12 514.45,137.13 512.71,128.86 529.29,140.06 				"/>
			</g>
		</g>
	</g>
</g>
<g id="Camada_5">
</g>
<g id="Camada_6">
</g>
</svg>
