<?xml version="1.0" encoding="utf-8"?>
<!-- Generator: Adobe Illustrator 24.0.1, SVG Export Plug-In . SVG Version: 6.00 Build 0)  -->
<svg version="1.1" xmlns="http://www.w3.org/2000/svg" xmlns:xlink="http://www.w3.org/1999/xlink" x="0px" y="0px"
	 viewBox="0 0 1080 1080" style="enable-background:new 0 0 1080 1080;" xml:space="preserve">
<style type="text/css">
	.st0{display:none;}
	.st1{fill:none;stroke:#FFFFFF;stroke-width:6;stroke-miterlimit:10;}
	.st2{fill:none;stroke:#FF0000;stroke-width:6;stroke-miterlimit:10;}
	.st3{fill:#FF0000;}
	.st4{fill:none;stroke:#000000;stroke-width:6;stroke-miterlimit:10;}
	.st5{fill:none;stroke:#F40000;stroke-width:6;stroke-miterlimit:10;}
	.st6{fill:#F40000;}
	.st7{fill:none;stroke:#000000;stroke-width:6;stroke-linecap:round;stroke-linejoin:round;stroke-miterlimit:10;}
	.st8{fill:none;stroke:#FFFFFF;stroke-width:6;stroke-linecap:round;stroke-linejoin:round;stroke-miterlimit:10;}
	.st9{fill:none;stroke:#000000;stroke-width:6;stroke-linecap:round;stroke-miterlimit:10;}
	.st10{fill:none;stroke:#FFFFFF;stroke-width:6;stroke-linecap:round;stroke-miterlimit:10;}
</style>
<g id="Camada_4" class="st0">
</g>
<g id="_x31_">
	<g id="Camada_3">
	</g>
</g>
<g id="_x32_">
	<path class="st1" d="M502.39,249.9c22.12,2.17,27.03,17.89,47,15c13.48-1.95,15.08-9.67,34-14c10.66-2.44,13.66-0.8,33-1
		c37.11-0.39,39.93-6.6,54-2c16.51,5.4,33.38,20.74,32,34c-0.99,9.49-10.65,11.62-29,29c-7.85,7.43-19.82,18.78-27,32
		c-8.37,15.41-5.83,25.28-6,75c-0.17,51.34-2.92,55.86-6,59c-12.55,12.8-29.14,1.13-83,3c-38.34,1.33-48.83,7.9-59-1
		c-9.07-7.94-8.37-19.85-7-66c1.53-51.53,2.16-83.91,1-84c-0.7-0.05-2.97,11.63-4,24c-1.25,15.05,0.38,18.7-3,22
		c-4.61,4.52-10.28,0.28-28,2c-13.18,1.28-15.27,4.13-19,2c-2.79-1.59-8.24-6.97-3-45c4.06-29.47,6.09-44.21,13-54
		C454.97,262.09,479.13,247.62,502.39,249.9z"/>
	<path class="st1" d="M505.39,248.9c26.67,0.67,53.33,1.33,80,2"/>
	<path class="st1" d="M511.39,248.9c0.35-3.15,1.38-7.86,5-11c6.03-5.23,13.11-0.76,30-1c16.73-0.23,24.93-4.82,29,0
		c2.5,2.96,1.87,7.63,1,11"/>
	<path class="st1" d="M520.39,235.9c-2.11-2.12-27.55-28.47-20-63c4.8-21.96,23.43-49.48,50-49c24.53,0.44,41.74,24.5,47,44
		c6.31,23.41-2.16,49.36-22,67"/>
	<path class="st1" d="M702.39,275.9c10.45-35.47,5.75-49.71-1-56c-3.5-3.26-6.7-3.6-11-9c-7.58-9.52-4.3-16.82-11-29
		c-3.23-5.88-6.81-12.96-14-15c-4.88-1.39-9.14,0.15-17,3c-9.58,3.47-14.51,5.25-17,10c-4.61,8.79,3.02,20.38,6,25
		c1.91,2.96,9.64,14.95,20,15c2.98,0.01,4.39-0.97,6,0c4.39,2.65,1.91,14.8-1,25"/>
	<path class="st1" d="M433.39,387.9c-0.47-4.16-1.02-9-1-9c0.04,0,3.34,22.38,5,44c2.6,33.93-0.98,38.23,0,87
		c0.73,36.26,2.65,31.18,2,52c-0.78,24.95-3.91,43.8,2,46c4.07,1.52,7.04-6.88,20-12c12.86-5.08,22.14-1.64,24-6
		c1.7-3.98-5.45-8.15-10-16c-8.06-13.91-1.65-28.49,4-55c2.52-11.81,5.56-29.12,7-51"/>
	<path class="st1" d="M439.39,605.9c1.38,5.32,4.26,12.88,11,18c6.7,5.09,12.55,4.2,33,6c32.19,2.83,37.26,6.73,40,10
		c4.22,5.03,3.76,9.52,9,12c2.01,0.95,4.6,1.48,19-2c16.37-3.96,18.16-5.89,19-7c4.01-5.26,2.43-12.45,1-19
		c-0.78-3.55-5.04-23-19-28c-6.51-2.33-11.78-0.32-18,1c-10.96,2.32-27.04,2.95-49-5"/>
	<path class="st1" d="M526.39,644.9c15.33-4.67,30.67-9.33,46-14"/>
	<path class="st1" d="M634.39,476.9c1.82,27.36,1.59,49.47,1,65c-0.71,18.69-1.73,21.98,0,31c5.36,27.93,23.01,37.45,18,51
		c-1.89,5.12-8.93,9.08-23,17c-13.51,7.6-22.21,12.5-34,12c-10.57-0.45-18.64-5.03-23-8"/>
	<path class="st1" d="M653.39,623.9c1.13,7.08,4.49,28.2,9,56c9.79,60.36,13.22,79.75,1,94c-6.94,8.09-17.78,13.19-28,13
		c-20.57-0.38-34.88-22.11-46-39c-16.51-25.08-14.83-36.82-32-64c-9.36-14.82-18.86-25.58-25-32"/>
	<path class="st1" d="M585.39,650.9c9.66,4.02,31.76,14.77,49,39c14.55,20.46,18.64,40.69,20,51"/>
	<path class="st1" d="M452.39,624.9c-2.12,6.77-4.13,16.86,1,23c5.71,6.82,16.81,4.66,39,4c10.13-0.3,24.87-0.35,43,1"/>
	<path class="st1" d="M468.39,652.9c0.31,31.17,4.88,55.52,9,72c7.85,31.39,14.58,36.33,19,64c4.38,27.43-1.84,25.12,2,69
		c0.98,11.17,0.75,4,18,69c0.88,3.3,2.85,10.75,9,14c2.96,1.57,4.92,1.11,16,1c14.48-0.15,16,0.58,18-1c5.86-4.61,1.99-17.98,0-27
		c-7.05-32.02,4.46-33.05,0-74c-3.56-32.64-10.93-32.55-10-57c0.72-19.01,5.39-24.58,8-46c2.78-22.83,0.61-42.26-2-56"/>
	<path class="st1" d="M512.39,911.9c5.25,14.93,6.69,27.3,7,36c0.5,13.95-1.63,25.92,1,47c1.5,12.01,3.04,14.87,5,17
		c9.43,10.22,32.87,8.1,44-2c14.27-12.95,14.05-44.23-7-73"/>
	<path class="st1" d="M516.39,926.9c15.33,0.33,30.67,0.67,46,1"/>
	<g>
		<g>
			<path class="st2" d="M372.39,597.9c0.32-77.15,0.63-154.31,0.95-231.46"/>
			<g>
				<polygon class="st3" points="381.09,372.37 373.33,369.03 365.54,372.3 373.39,353.9 				"/>
			</g>
		</g>
	</g>
</g>
<g id="Camada_5">
</g>
<g id="Camada_6">
</g>
<g id="Camada_7">
</g>
<g id="Camada_8">
</g>
</svg>
