<?xml version="1.0" encoding="utf-8"?>
<!-- Generator: Adobe Illustrator 24.0.1, SVG Export Plug-In . SVG Version: 6.00 Build 0)  -->
<svg version="1.1" id="Camada_1" xmlns="http://www.w3.org/2000/svg" xmlns:xlink="http://www.w3.org/1999/xlink" x="0px" y="0px"
	 viewBox="0 0 1080 1080" style="enable-background:new 0 0 1080 1080;" xml:space="preserve">
<style type="text/css">
	.st0{fill:#000E3F;stroke:#000E3F;stroke-width:0.25;stroke-miterlimit:10;}
	.st1{fill:#000E3F;}
	.st2{fill:none;stroke:#000E3F;stroke-width:6;stroke-linecap:round;stroke-miterlimit:10;}
	.st3{fill:#000E3F;stroke:#000E3F;stroke-miterlimit:10;}
	.st4{fill:none;}
</style>
<path class="st0" d="M614.45,132.39C506.6,92.13,387.43,190.09,387.43,365.8c0,175.72,119.17,273.67,227.02,233.41
	c80.19-29.93,131.52-131.62,131.52-233.41C745.97,264.01,694.64,162.32,614.45,132.39z M614.45,583.63
	C514.95,618.3,407.6,525.9,407.6,365.8c0-160.1,107.35-252.49,206.85-217.83c75.48,26.3,124.48,121.48,124.48,217.83
	C738.94,462.15,689.93,557.34,614.45,583.63z"/>
<g>
	<path class="st1" d="M675.2,496.77c-1.01-2.38-3.22-2.73-4.92-0.76c-1.72,1.98-2.28,5.55-1.24,7.94l6.29,14.54
		c1.01,2.34,3.18,2.58,4.84,0.56c1.65-2,2.18-5.5,1.19-7.82L675.2,496.77z"/>
	<path class="st1" d="M463.68,361.71c0-2-2.99-3.63-6.72-3.65l-23.69-0.11c-3.99-0.02-7.26,1.66-7.26,3.76
		c0,2.09,3.27,3.77,7.26,3.76l23.69-0.11C460.68,365.34,463.68,363.7,463.68,361.71z"/>
	<path class="st1" d="M491.94,470.09c-1.25-1.56-4.6-0.96-7.52,1.36l-18.55,14.74c-3.13,2.48-4.62,5.84-3.31,7.47
		c1.31,1.63,4.91,0.9,8.01-1.61l18.41-14.91C491.88,474.79,493.19,471.65,491.94,470.09z"/>
	<path class="st1" d="M552.74,531.3c-1.84-0.78-4.51,1.34-5.98,4.76l-9.36,21.77c-1.58,3.67-1.3,7.33,0.62,8.15
		c1.93,0.82,4.75-1.53,6.29-5.21l9.15-21.85C554.91,535.48,554.58,532.08,552.74,531.3z"/>
	<path class="st1" d="M616.02,567.46c1.99-0.08,3.51-3.13,3.38-6.85l-0.81-23.68c-0.14-3.99-1.94-7.19-4.03-7.11
		c-2.09,0.08-3.65,3.41-3.47,7.4l1.03,23.67C612.28,564.61,614.02,567.54,616.02,567.46z"/>
	<path class="st1" d="M681.64,520.44c1.82-0.83,2.24-3.83,0.94-6.74l-8.28-18.49c-1.4-3.12-4.08-4.96-5.99-4.1
		c-1.91,0.87-2.28,4.1-0.85,7.2l8.48,18.4C677.28,519.61,679.83,521.27,681.64,520.44z"/>
	<path class="st1" d="M717.11,444.77c1.24-1.57,1.04-3.8-0.45-5.01l-9.51-7.66c-1.6-1.29-3.96-1.01-5.26,0.63
		c-1.3,1.64-1.02,4,0.6,5.27l9.65,7.49C713.65,446.65,715.87,446.33,717.11,444.77z"/>
	<path class="st1" d="M729.53,365.67c0.02-2-1.05-3.64-2.41-3.67l-8.65-0.21c-1.46-0.04-2.67,1.63-2.69,3.72
		c-0.02,2.09,1.15,3.79,2.61,3.79l8.65-0.01C728.4,369.29,729.51,367.67,729.53,365.67z"/>
	<path class="st1" d="M716.57,279.55c-1.24-1.56-3.41-1.92-4.86-0.79l-9.21,7.19c-1.55,1.21-1.77,3.53-0.46,5.17
		s3.61,1.95,5.14,0.71l9.08-7.37C717.67,283.3,717.81,281.11,716.57,279.55z"/>
	<path class="st1" d="M673.86,206.62c-1.86-0.72-4.16,0.68-5.15,3.16l-6.28,15.8c-1.06,2.66-0.34,5.46,1.61,6.22
		c1.95,0.76,4.37-0.81,5.39-3.49l6.07-15.88C676.46,209.94,675.72,207.35,673.86,206.62z"/>
	<path class="st1" d="M613.38,165.22c-1.99,0.11-3.48,2.9-3.31,6.26l1.05,21.4c0.18,3.61,2.02,6.46,4.11,6.35
		c2.09-0.11,3.61-3.15,3.4-6.76l-1.27-21.39C617.15,167.73,615.38,165.12,613.38,165.22z"/>
	<path class="st1" d="M530.43,171.66c-1.84,0.78-2.11,4.34-0.59,7.99l9.68,23.25c1.63,3.92,4.53,6.46,6.46,5.65s2.13-4.66,0.47-8.57
		l-9.88-23.16C535.01,173.18,532.27,170.88,530.43,171.66z"/>
	<path class="st1" d="M459.36,247.04c-0.74,1.85,0.99,4.3,3.88,5.47l18.42,7.45c3.1,1.25,6.27,0.7,7.04-1.24s-1.15-4.52-4.26-5.74
		l-18.5-7.24C463.03,244.6,460.09,245.18,459.36,247.04z"/>
</g>
<g>
	<path class="st1" d="M151.76,829.23c0-56,30.82-89.98,74.73-89.98s74.73,34.08,74.73,89.98c0,56-30.82,91.25-74.73,91.25
		S151.76,885.23,151.76,829.23z M278.23,829.23c0-43.56-20.53-70.42-51.75-70.42s-51.75,26.87-51.75,70.42s20.53,71.69,51.75,71.69
		S278.23,872.79,278.23,829.23z"/>
	<path class="st1" d="M328.64,830.02c0-56.39,33.22-90.77,77.58-90.77c21.23,0,37.85,10.32,48.09,21.56l-12.19,14.49
		c-9.2-9.82-20.75-16.49-35.5-16.49c-33.04,0-55,27.07-55,70.62c0,43.95,20.98,71.49,54.13,71.49c16.69,0,29.36-7.26,40.52-19.63
		l12.19,13.95c-13.81,16.04-30.93,25.24-53.64,25.24C361.27,920.48,328.64,886.8,328.64,830.02z"/>
	<path class="st1" d="M488.85,891.27V727.5h21.91v165.37c0,6.7,2.92,9.36,6.11,9.36c1.26,0,2.33,0,4.79-0.53l2.97,16.73
		c-3.11,1.12-6.87,2.05-12.61,2.05C495.6,920.48,488.85,910,488.85,891.27z"/>
	<path class="st1" d="M547.15,852.71c0-43.21,28.26-68.11,60-68.11c31.74,0,60,24.9,60,68.11c0,42.87-28.26,67.77-60,67.77
		C575.42,920.48,547.15,895.58,547.15,852.71z M644.52,852.71c0-29.67-15.09-49.87-37.36-49.87c-22.27,0-37.36,20.19-37.36,49.87
		c0,29.67,15.09,49.53,37.36,49.53C629.43,902.24,644.52,882.38,644.52,852.71z"/>
	<path class="st1" d="M691.53,852.71c0-43.21,29.19-68.11,62.3-68.11c16.99,0,28.77,7.01,37.88,15.2l-11.21,14.49
		c-7.54-6.81-15.51-11.44-25.69-11.44c-23.45,0-40.64,20.19-40.64,49.87c0,29.67,16.24,49.53,40.05,49.53
		c11.84,0,22.33-5.75,30.4-12.9l9.5,14.68c-11.64,10.37-26.33,16.46-41.86,16.46C717.8,920.48,691.53,895.58,691.53,852.71z"/>
	<path class="st1" d="M822.62,727.5h21.52v128.53h0.73l55.28-68.24h24.29l-43.38,52.04l49.07,77.45h-23.96l-37.75-62.23
		l-24.29,28.25v33.99h-21.52V727.5z"/>
</g>
<line class="st2" x1="615.24" y1="384.32" x2="613.76" y2="235.11"/>
<line class="st2" x1="526.5" y1="386.94" x2="613.47" y2="385.39"/>
<path class="st1" d="M615.65,597.84"/>
<g>
	<path class="st1" d="M744.36,454.06c7.24-30.38,9.99-61.72,9.52-92.91c-0.35-15.6-1.46-31.2-3.78-46.63
		c-2.23-15.44-5.47-30.73-9.78-45.71c-2.13-7.5-4.65-14.88-7.3-22.2c-2.8-7.27-5.69-14.51-9.02-21.55
		c-6.51-14.15-14.22-27.73-22.93-40.62c-8.71-12.89-18.53-25.02-29.34-36.18c-5.4-5.58-11.08-10.89-17.01-15.9
		c-1.48-1.25-2.98-2.48-4.5-3.69c-1.51-1.22-3.05-2.41-4.62-3.54c-3.14-2.27-6.17-4.68-9.48-6.69l-4.87-3.16l-5.04-2.86
		c-3.31-2-6.87-3.54-10.32-5.27c-1.75-0.82-3.56-1.5-5.33-2.25l-2.68-1.11c-0.9-0.36-1.82-0.64-2.73-0.96
		c-1.83-0.62-3.64-1.28-5.48-1.87l-5.57-1.56c-7.47-1.92-15.09-3.24-22.78-3.9c-7.69-0.67-15.43-0.67-23.17-0.24
		c-7.75,0.47-15.53,1.03-23.17,2.14c-7.65,1.1-15.2,2.75-22.58,4.99c-1.83,0.6-3.69,1.13-5.5,1.78l-5.42,2.01
		c-1.79,0.71-3.55,1.51-5.33,2.25c-1.79,0.72-3.51,1.59-5.24,2.45l-2.6,1.28l-1.3,0.64l-1.26,0.71l-5.05,2.82
		c-1.69,0.93-3.28,2.04-4.92,3.04c-1.62,1.05-3.29,2.01-4.84,3.17c-3.14,2.25-6.34,4.41-9.3,6.89l-4.53,3.61l-4.33,3.85
		c-2.91,2.53-5.75,5.21-8.54,7.9c-2.79,2.7-5.53,5.44-8.2,8.24c-10.69,11.22-20.41,23.36-29,36.26c-4.3,6.45-8.31,13.08-12.06,19.86
		c-3.73,6.79-7.15,13.75-10.33,20.81c-3.18,7.07-5.98,14.3-8.62,21.58l-1.85,5.51l-0.92,2.76l-0.85,2.78l-1.69,5.56l-1.53,5.61
		c-8.04,29.95-11.34,61.08-10.99,92.07c0.45,30.99,4.41,62.03,12.36,91.94c4.08,14.93,9.12,29.59,15.43,43.69
		c0.73,1.79,1.62,3.5,2.44,5.25l2.5,5.22c1.75,3.44,3.6,6.82,5.41,10.23l2.93,4.99c1,1.65,1.9,3.36,2.98,4.95l3.13,4.86l1.56,2.43
		l1.66,2.36l3.32,4.73c1.11,1.58,2.33,3.07,3.49,4.6c1.19,1.51,2.31,3.08,3.56,4.55l3.71,4.42c0.62,0.73,1.23,1.49,1.87,2.2
		l1.95,2.13l3.9,4.26l4.07,4.09l2.04,2.04c0.68,0.68,1.41,1.31,2.11,1.97l4.24,3.91c1.44,1.28,2.93,2.49,4.39,3.74
		c2.89,2.55,6.01,4.8,9.03,7.19l4.69,3.36l2.35,1.67l2.42,1.57c1.62,1.04,3.21,2.12,4.85,3.13l4.96,2.95
		c13.29,7.75,27.51,13.91,42.27,18.23c14.77,4.22,30.08,6.86,45.44,6.77c15.34-0.07,30.7-2.59,45.5-7
		c7.39-2.24,14.64-4.94,21.74-8.03c7.06-3.16,13.93-6.74,20.63-10.64c6.62-4.03,13.08-8.32,19.24-13.05
		c6.12-4.76,12.09-9.74,17.63-15.18c2.85-2.64,5.49-5.49,8.18-8.29c1.37-1.38,2.6-2.89,3.9-4.33c1.27-1.47,2.59-2.9,3.82-4.4
		l3.66-4.54l1.83-2.28l1.73-2.35l3.46-4.7c1.14-1.58,2.18-3.23,3.27-4.84c8.64-12.95,16.02-26.76,22.07-41.13
		C735.9,484.12,740.67,469.22,744.36,454.06z M744.95,454.2c-3.59,15.21-8.27,30.19-14.21,44.67
		c-5.95,14.47-13.14,28.45-21.68,41.59c-1.08,1.63-2.11,3.3-3.23,4.91l-3.4,4.8l-1.7,2.4l-1.8,2.33l-3.6,4.65
		c-1.21,1.54-2.52,3.01-3.77,4.52c-1.28,1.48-2.49,3.03-3.85,4.45c-2.66,2.88-5.28,5.81-8.11,8.54c-5.5,5.61-11.45,10.76-17.56,15.7
		c-6.15,4.91-12.62,9.39-19.27,13.61c-6.72,4.1-13.64,7.88-20.78,11.24c-7.17,3.29-14.52,6.18-22.03,8.62
		c-7.52,2.43-15.22,4.31-23.01,5.7c-7.8,1.37-15.71,2.23-23.66,2.35c-7.95,0.14-15.9-0.39-23.75-1.5
		c-7.86-1.11-15.63-2.73-23.27-4.87c-15.26-4.33-29.96-10.55-43.72-18.42l-5.12-3.02c-1.69-1.04-3.33-2.14-5-3.21l-2.49-1.62
		l-2.43-1.72l-4.84-3.45c-3.11-2.45-6.33-4.77-9.32-7.38c-1.51-1.28-3.05-2.53-4.53-3.85l-4.38-4.02c-0.72-0.67-1.47-1.33-2.18-2.02
		l-2.1-2.1l-4.2-4.2l-4.02-4.37l-2.01-2.19c-0.66-0.73-1.28-1.51-1.93-2.26l-3.83-4.54c-1.28-1.51-2.44-3.11-3.67-4.67
		c-1.2-1.58-2.45-3.11-3.6-4.72l-3.43-4.85l-1.71-2.42l-1.61-2.49l-3.2-4.99c-1.1-1.64-2.02-3.4-3.04-5.09l-2.98-5.13
		c-1.84-3.5-3.73-6.97-5.5-10.5l-2.55-5.35c-0.83-1.79-1.74-3.55-2.48-5.38c-6.4-14.44-11.49-29.42-15.59-44.64
		c-7.91-30.53-11.72-61.97-11.99-93.42c-0.16-31.44,3.38-63,11.73-93.37l1.58-5.69l1.74-5.64l0.87-2.82l0.95-2.79l1.91-5.59
		c2.72-7.39,5.59-14.72,8.86-21.88c3.27-7.16,6.78-14.21,10.6-21.09c3.85-6.87,7.96-13.59,12.36-20.12
		c8.79-13.06,18.72-25.35,29.63-36.69c2.73-2.84,5.53-5.6,8.36-8.32c2.84-2.72,5.69-5.38,8.69-7.96l4.44-3.91l4.64-3.67
		c3.04-2.52,6.33-4.72,9.55-7c1.59-1.18,3.31-2.16,4.97-3.23c1.69-1.03,3.32-2.15,5.05-3.09l5.19-2.87l1.3-0.72l1.33-0.65l2.67-1.3
		c1.78-0.87,3.55-1.75,5.38-2.48c1.83-0.76,3.63-1.57,5.47-2.28l5.57-2.03c1.86-0.66,3.77-1.2,5.65-1.8
		c7.58-2.26,15.33-3.91,23.15-5c7.83-1.1,15.64-1.62,23.49-2.06c7.85-0.4,15.77-0.36,23.64,0.36c7.87,0.71,15.67,2.11,23.32,4.11
		l5.7,1.63c1.88,0.61,3.73,1.29,5.6,1.94c0.93,0.34,1.87,0.63,2.79,1l2.73,1.14c1.81,0.78,3.66,1.48,5.44,2.33
		c3.52,1.78,7.14,3.37,10.51,5.43l5.13,2.94l4.94,3.24c3.35,2.08,6.43,4.55,9.59,6.89c1.59,1.17,3.13,2.37,4.65,3.62
		c1.53,1.24,3.03,2.5,4.53,3.77c5.96,5.12,11.67,10.53,17.08,16.22c10.83,11.37,20.64,23.68,29.31,36.75
		c8.67,13.07,16.26,26.84,22.66,41.14c3.27,7.12,6.1,14.42,8.83,21.76c2.58,7.39,5.04,14.82,7.1,22.38
		c8.45,30.15,12.48,61.42,12.95,92.67C754.96,392.38,752.2,423.77,744.95,454.2z"/>
</g>
<path class="st3" d="M599.59,100.02c0.35-1.44-9.51-5.07-11.48-5.69c-7.06-2.22-16.59-4.43-26.31-5.64l0,0
	c-0.19-0.03-32.28-5.15-64.23,1.89c-34.83,7.68-84.07,31.28-122.8,75.57c-62.31,71.25-63.74,157.5-64.23,188.92
	c-0.49,31.39-2.33,145.79,81.24,221.04c12.45,11.21,56.33,49.5,122.8,56.68c56.98,6.15,104.22-13.42,103.91-15.11
	c-0.29-1.56-40.49,15.01-88.79,7.56c-101.13-15.61-156.64-124.06-158.87-128.57c-28.15-56.95-25.85-108.77-24.39-141.6
	c0.99-22.23,9.29-160.55,102.02-222.93c30.32-20.4,62.34-28.34,62.35-28.34c11.82-2.94,35.07-8.72,64.23-5.67
	C585.38,99.22,599.18,101.69,599.59,100.02z"/>
<path class="st4" d="M744,453.29c15.99-62.17,9.72-119.35,7.25-137.4C733.9,189.32,654.6,131.02,639.77,120.12
	C590.99,84.26,546.5,86.59,521.5,88.38c-22.25,1.59-65.15,5.4-110.76,45.02c-19.56,16.99-86.34,75-99.05,189.53
	c-7.63,68.78,7.98,124.54,11.65,137.1C361.01,589.2,465.46,634.81,536.5,633.67C607.29,632.54,710.43,583.82,744,453.29z"/>
</svg>
