<svg width="25" height="25" viewBox="0 0 25 25" fill="none" xmlns="http://www.w3.org/2000/svg">
<path d="M2.74306 11.6666C2.60417 11.9444 2.5 12.2222 2.5 12.5C2.5 12.8125 2.60417 13.0903 2.74306 13.3333C3.75 15.0347 5.10417 16.3889 6.80556 17.3611C8.54167 18.4028 10.4514 18.8889 12.5 18.8889C14.5833 18.8889 16.4583 18.4028 18.1944 17.3611C19.9306 16.3889 21.2847 15.0347 22.2569 13.3333C22.4306 13.0903 22.5 12.8125 22.5 12.5C22.5 12.2222 22.4306 11.9444 22.2569 11.6666C21.2847 9.99997 19.9306 8.64581 18.1944 7.63886C16.4583 6.63192 14.5833 6.11108 12.5 6.11108C10.4514 6.11108 8.54167 6.63192 6.80556 7.63886C5.10417 8.64581 3.75 9.99997 2.74306 11.6666ZM12.5 17.2222C11.6667 17.2222 10.8681 17.0139 10.1389 16.5972C9.44444 16.1805 8.85417 15.5903 8.4375 14.8611C8.02083 14.1666 7.77778 13.368 7.77778 12.5C7.77778 11.6666 8.02083 10.868 8.4375 10.1389C8.85417 9.44442 9.44444 8.85414 10.1389 8.43747C10.8681 8.02081 11.6667 7.77775 12.5 7.77775C13.3681 7.77775 14.1667 8.02081 14.8611 8.43747C15.5903 8.85414 16.1806 9.44442 16.5972 10.1389C17.0139 10.868 17.2222 11.6666 17.2222 12.5C17.2222 13.368 17.0139 14.1666 16.5972 14.8611C16.1806 15.5903 15.5903 16.1805 14.8611 16.5972C14.1667 17.0139 13.3681 17.2222 12.5 17.2222ZM8.88889 12.5C8.88889 11.5278 9.27083 10.6597 9.96528 9.96525C10.6597 9.27081 11.5278 8.88886 12.5 8.88886C13.125 8.88886 13.6806 9.02775 14.2014 9.30553C13.7847 9.30553 13.4375 9.47914 13.1597 9.75692C12.8819 10.0347 12.7083 10.3819 12.7083 10.7986C12.7083 11.2153 12.8819 11.5972 13.1597 11.875C13.4375 12.1528 13.7847 12.2916 14.2014 12.2916C14.6181 12.2916 15 12.1528 15.2778 11.875C15.5556 11.5972 15.6944 11.2153 15.6944 10.7986C15.9722 11.3541 16.1111 11.9097 16.1111 12.5C16.1111 13.5069 15.7639 14.375 15.0694 15.0694C14.375 15.7639 13.5069 16.1111 12.5 16.1111C11.5278 16.1111 10.6597 15.7639 9.96528 15.0694C9.27083 14.375 8.88889 13.5069 8.88889 12.5Z" fill="white"/>
</svg>
