<?xml version="1.0" encoding="utf-8"?>
<!-- Generator: Adobe Illustrator 24.0.1, SVG Export Plug-In . SVG Version: 6.00 Build 0)  -->
<svg version="1.1" xmlns="http://www.w3.org/2000/svg" xmlns:xlink="http://www.w3.org/1999/xlink" x="0px" y="0px"
	 viewBox="0 0 1080 1080" style="enable-background:new 0 0 1080 1080;" xml:space="preserve">
<style type="text/css">
	.st0{display:none;}
	.st1{fill:none;stroke:#FFFFFF;stroke-width:6;stroke-miterlimit:10;}
	.st2{fill:none;stroke:#FF0000;stroke-width:6;stroke-miterlimit:10;}
	.st3{fill:#FF0000;}
	.st4{fill:none;stroke:#000000;stroke-width:6;stroke-miterlimit:10;}
	.st5{fill:none;stroke:#F40000;stroke-width:6;stroke-miterlimit:10;}
	.st6{fill:#F40000;}
	.st7{fill:none;stroke:#000000;stroke-width:6;stroke-linecap:round;stroke-linejoin:round;stroke-miterlimit:10;}
	.st8{fill:none;stroke:#FFFFFF;stroke-width:6;stroke-linecap:round;stroke-linejoin:round;stroke-miterlimit:10;}
	.st9{fill:none;stroke:#000000;stroke-width:6;stroke-linecap:round;stroke-miterlimit:10;}
	.st10{fill:none;stroke:#FFFFFF;stroke-width:6;stroke-linecap:round;stroke-miterlimit:10;}
</style>
<g id="Camada_4" class="st0">
</g>
<g id="_x31_">
	<g id="Camada_3">
	</g>
</g>
<g id="_x32_">
	<path class="st1" d="M650.37,540.97c-1.38-3.07-3.17-7.01-5.52-12.21c-11.04-24.41-20.11-44.31-26.29-57.84"/>
	<path class="st1" d="M447.7,577.57c1.47,17.33,2.15,37,1.2,58.58c-1.07,24.36-3.98,46.2-7.54,65c0,0.94-1.88,1.88-1.88,2.83
		c-5.65,22.61-27.32,33.91-37.68,53.7c-19.78,37.68-10.36,79.13-16.01,119.64c-2.83,19.78-9.42,36.74-19.78,53.7
		c-8.48,12.25-18.84,20.73-27.32,32.03c-7.54,8.48-3.77,20.73,5.65,25.44c12.25,6.59,26.38,4.71,39.57,4.71
		c23.55-10.36,32.97-38.62,28.26-64.06c-2.83-13.19-1.88-25.44,0.94-38.62c3.77-18.84,10.36-34.86,21.67-50.87
		c9.42-12.25,15.07-25.44,20.73-38.62c4.71-12.25,3.77-26.38,7.54-38.62c5.65-15.07,13.19-27.32,23.55-39.57
		c4.71-7.54,9.42-14.13,14.13-21.67c17.9-32.97,27.32-66.89,38.62-101.74c2.83-10.36,4.71-19.78,8.48-30.15
		c0.94-1.88,2.83-3.77,5.65-3.77c8.48-0.94,15.07,4.71,18.84,12.25c5.65,13.19,8.48,27.32,12.25,41.45
		c6.59,19.78,14.13,38.62,21.67,58.41c5.65,13.19,11.3,24.49,19.78,36.74c1.88,2.83,2.83,6.59,5.65,10.36
		c2.83,2.83,4.71,5.65,6.59,9.42c0.94,0.94,1.88,1.88,2.83,2.83c3.77,5.65,5.65,11.3,6.59,17.9c0.94,16.96-2.83,33.91,3.77,49.93
		c2.83,6.59,8.48,11.3,13.19,16.96c1.88,1.88,2.83,4.71,3.77,6.59c0.94,0.94,1.88,1.88,2.83,2.83
		c16.96,26.38,22.61,59.35,5.65,86.67c-9.42,15.07,3.77,29.2,16.01,38.62c16.01,11.3,32.97,16.96,52.75,21.67
		c4.71,0.94,9.42,0,14.13-1.88c7.54-3.77,11.3-11.3,9.42-19.78c-2.83-12.25-17.9-12.25-27.32-18.84
		c-8.48-5.65-15.07-12.25-19.78-21.67c-0.94-1.88-0.94-4.71-2.83-6.59c-1.88-4.71-1.88-9.42-1.88-14.13
		c-0.94-22.61,0.94-44.28,0-66.89c-0.94-10.36-2.83-20.73-6.59-31.09c-4.71-11.3-13.19-20.73-17.9-32.03
		c-3.77-11.3-5.65-23.55-6.59-35.8c0-30.15,2.83-60.29-4.71-90.44c-0.94-3.77-1.88-7.54-1.88-11.3c0-0.94-1.88-1.88-1.88-2.83
		c-2.77-10.74-5.53-21.48-8.3-32.22"/>
	<path class="st1" d="M486.75,464.62c-3.54,15.02-9.35,32.23-19.01,50.01c-2.29,4.21-4.65,8.19-7.04,11.94"/>
	<path class="st1" d="M383.35,887.93c3.99,1.52,9.91,3.22,17.22,3.44c4.99,0.15,9.29-0.43,12.63-1.15"/>
	<path class="st1" d="M378.76,907.45c4.11,1.48,10,3.09,17.22,3.44c5.98,0.3,11.08-0.36,14.92-1.15"/>
	<path class="st1" d="M686.36,883.34c3.55,1.49,9.57,3.48,17.22,3.44c5.8-0.03,10.54-1.21,13.77-2.3"/>
	<path class="st1" d="M684.07,901.71c4.28,1.6,11.06,3.54,19.51,3.44c6.12-0.07,11.22-1.18,14.92-2.3"/>
	<path class="st1" d="M485.5,470.14c17.45,5.28,41.34,10.6,70.01,11.48c25.68,0.79,47.6-2.21,64.28-5.74"/>
	<path class="st1" d="M447.63,637.72c23.72,7.27,47.44,14.54,71.16,21.81"/>
	<path class="st1" d="M601.43,662.97c10.78-6.48,23.81-13.33,39.02-19.51c14.21-5.77,27.43-9.79,39.02-12.63"/>
	<path class="st1" d="M480.91,480.47c21.15,7.07,53.06,14.68,91.82,12.63c19.47-1.03,36.5-4.28,50.5-8.03"/>
	<path class="st1" d="M619.05,459.5c0.1,4.35,0.27,8.7,0.5,13.04"/>
	<path class="st1" d="M485.55,468.44c4.88-11.94,10.18-29.55,10.15-50.87c-0.01-8.04-0.12-20.34-5-35c-3.57-10.74-5.99-11.59-9-21
		c-0.79-2.46-6.2-20.05-2-40c4.37-20.76,13.68-18.07,22-44c4.91-15.31,8-36,8-36c3.67-0.67,7.33-1.33,11-2
		c-0.43,3.69-2.29,22.87,11,38c14.64,16.66,39.4,19.01,55,12c0,0,5.09-2.29,30-28c7.07-0.29,15.67,0.28,18,5
		c3.14,6.36-8.42,13.44-11,28c-2.37,13.4,5.26,19.69,9,35c4.41,18.04-1.05,30.28-6,51c-4.26,17.84-8.68,44.19-8,79"/>
	<path class="st1" d="M627.7,262.57c10.05,4.26,24.61,12.18,36,27c9.61,12.5,13.56,25.49,18,81c4.06,50.75,6.08,76.12,3,106
		c-3.31,32.05-6.49,23.94-11,62c-4.73,39.93-2.87,62.74-20,79c-5.7,5.41-16.84,13.26-22,10c-3.45-2.18-3.2-8.69-3-14
		c0.58-15.18,7.58-23.65,5-26c-3.12-2.85-15.51,7.62-17,6c-1.94-2.11,20.39-18.44,32-43c7.18-15.19,3.9-20.05,7-74
		c2.52-43.84,5.23-49.98,1-66c-5.67-21.47-17.51-36.83-26-46"/>
	<path class="st1" d="M460.73,526.59c-1.3-11.65-0.43-28.43-2.02-53.02c-2.59-40.03-7.82-40.63-5-59c3.96-25.78,17.35-44.79,27-56"
		/>
	<path class="st1" d="M520.7,239.57c-7.77-3.74-19.92-7.93-32-4c-17.26,5.61-24.51,24.58-33,48c-25.37,70.01-38.05,105.01-39,124
		c-1.16,23.12,3.56,46.08,13,92c11.28,54.87,25.36,123.38,46,124c6.99,0.21,15.39-7.36,16-14c0.59-6.36-6.23-8.99-13-22
		c-4.02-7.72-7.9-18.87-5-21c3.65-2.68,15.67,10.65,19,8c1.99-1.59-0.09-8.11-3-13c-5.86-9.83-14.48-12.02-20-16
		c-5.69-4.1-7.97-10.02-8.98-18.98"/>
	<path class="st1" d="M507.7,234.57c6.69,0.56,16.05,0.75,27-1c6.79-1.09,17.91-2.87,29-9c11.28-6.24,17.33-14.12,27-27
		c18.63-24.82,16.68-33.65,29-40c10.49-5.4,23.71-5.09,34,0c20.95,10.37,21.95,36.68,22,39c0.45,20.45-12.93,33.9-17,38
		c-13.92,14.01-30.44,16.41-35,17c-8.26,1.08-27.62,3.6-35-8c-5.5-8.65-1.16-20.16,0-23"/>
	<path class="st1" d="M617.7,252.57c0.33,3,0.67,6,1,9"/>
	<path class="st1" d="M615.7,160.57c13.41-14.33,33.24-19.37,50-13c1.46,0.56,19.15,7.61,25,26c5.99,18.84-3.05,41.39-23,54"/>
	<path class="st1" d="M653.7,278.57c2.94-2.29,12.67-10.45,16-25c2.82-12.3-0.53-22.27-2-26"/>
	<g>
		<g>
			<path class="st2" d="M601.7,123.57c82.18-4.4,99.85-9.78,100-14c0.29-8.31-67.14-19.35-130-20c-53.44-0.56-116.78,6.25-117,15
				c-0.11,4.3,15.02,10.62,82.56,19.42"/>
			<g>
				<polygon class="st3" points="530.41,130.88 534.7,123.6 532.44,115.46 549.7,125.57 				"/>
			</g>
		</g>
	</g>
	<g>
		<g>
			<path class="st2" d="M533.16,173.73c-82.18-4.4-99.85-9.78-100-14c-0.29-8.31,67.14-19.35,130-20c53.44-0.56,116.78,6.25,117,15
				c0.11,4.3-15.02,10.62-82.56,19.42"/>
			<g>
				<polygon class="st3" points="602.43,165.62 600.16,173.76 604.45,181.04 585.16,175.73 				"/>
			</g>
		</g>
	</g>
	<path class="st1" d="M490.7,382.57c44.67,3,89.33,6,134,9"/>
</g>
<g id="Camada_5">
</g>
<g id="Camada_6">
</g>
</svg>
